<svg>
  <def>
    <svg id="pen" xmlns="http://www.w3.org/2000/svg" xmlns:xlink="http://www.w3.org/1999/xlink" xmlns:serif="http://www.serif.com/" fill="#000000" width="800px" height="800px" viewBox="0 0 64 64" version="1.1" xml:space="preserve" style="fill-rule:evenodd;clip-rule:evenodd;stroke-linejoin:round;stroke-miterlimit:2;"> <rect id="Icons" x="-128" y="-64" width="1280" height="800" style="fill:none;"/> <g id="Icons1" serif:id="Icons"> <g id="Strike"> </g> <g id="H1"> </g> <g id="H2"> </g> <g id="H3"> </g> <g id="list-ul"> </g> <g id="hamburger-1"> </g> <g id="hamburger-2"> </g> <g id="list-ol"> </g> <g id="list-task"> </g> <g id="trash"> </g> <g id="vertical-menu"> </g> <g id="horizontal-menu"> </g> <g id="sidebar-2"> </g> <g id="Pen"> <path d="M56.009,51.832l0,4.2l-33.652,-0.026l4.709,-4.174l28.943,0Z" style="fill-rule:nonzero;"/> <path d="M48.453,8.119c1.65,0 2.506,0.129 4.753,2.011c2.294,1.922 2.707,3.42 2.803,5.088c0.102,1.795 -0.504,3.975 -2.188,5.681l-31.961,31.961c-0.52,0.475 -0.63,0.449 -0.977,0.553l-10.226,2.556c-1.472,0.299 -2.854,-1.049 -2.55,-2.549l2.557,-10.226c0.1,-0.334 0.133,-0.517 0.553,-0.977c10.696,-10.696 21.195,-21.593 32.09,-32.087c1.421,-1.335 3.497,-2.011 5.146,-2.011Zm0,4.143c-0.86,0.016 -1.698,0.371 -2.311,0.976l-31.54,31.541l-1.566,6.261l6.262,-1.565c10.544,-10.544 21.419,-20.768 31.63,-31.634c1.674,-1.825 0.444,-5.453 -2.306,-5.577c-0.056,-0.002 -0.112,-0.003 -0.169,-0.002Z" style="fill-rule:nonzero;"/> </g> <g id="Pen1" serif:id="Pen"> </g> <g id="clock"> </g> <g id="external-link"> </g> <g id="hr"> </g> <g id="info"> </g> <g id="warning"> </g> <g id="plus-circle"> </g> <g id="minus-circle"> </g> <g id="vue"> </g> <g id="cog"> </g> <g id="logo"> </g> <g id="radio-check"> </g> <g id="eye-slash"> </g> <g id="eye"> </g> <g id="toggle-off"> </g> <g id="shredder"> </g> <g id="spinner--loading--dots-" serif:id="spinner [loading, dots]"> </g> <g id="react"> </g> <g id="check-selected"> </g> <g id="turn-off"> </g> <g id="code-block"> </g> <g id="user"> </g> <g id="coffee-bean"> </g> <g id="coffee-beans"> <g id="coffee-bean1" serif:id="coffee-bean"> </g> </g> <g id="coffee-bean-filled"> </g> <g id="coffee-beans-filled"> <g id="coffee-bean2" serif:id="coffee-bean"> </g> </g> <g id="clipboard"> </g> <g id="clipboard-paste"> </g> <g id="clipboard-copy"> </g> <g id="Layer1"> </g> </g> </svg>
    
    <svg id="calendar" data-name="Layer 1" xmlns="http://www.w3.org/2000/svg" viewBox="0 0 128 128"><path d="M113.854 22.323h-9.667v-2.677a7.25 7.25 0 0 0-14.5 0v2.677H38.313v-2.677a7.25 7.25 0 0 0-14.5 0v2.677h-9.667a1.75 1.75 0 0 0-1.75 1.75v89.781a1.751 1.751 0 0 0 1.75 1.75h99.708a1.751 1.751 0 0 0 1.75-1.75V24.073a1.75 1.75 0 0 0-1.75-1.75zm-20.667-2.677a3.75 3.75 0 0 1 7.5 0V28.5a3.75 3.75 0 0 1-7.5 0zm-65.874 0a3.75 3.75 0 0 1 7.5 0V28.5a3.75 3.75 0 0 1-7.5 0zm-3.5 6.177V28.5a7.25 7.25 0 0 0 14.5 0v-2.677h51.374V28.5a7.25 7.25 0 0 0 14.5 0v-2.677h7.913V44.2H15.9V25.823zM15.9 112.1V47.7h96.2v64.4z"/><path d="M40.2 56h-8.721a1.749 1.749 0 0 0-1.75 1.75v8.719a1.749 1.749 0 0 0 1.75 1.75H40.2a1.749 1.749 0 0 0 1.75-1.75V57.75A1.749 1.749 0 0 0 40.2 56zm-1.75 8.719h-5.221V59.5h5.218zM58.972 56h-8.719a1.75 1.75 0 0 0-1.75 1.75v8.719a1.75 1.75 0 0 0 1.75 1.75h8.719a1.75 1.75 0 0 0 1.75-1.75V57.75a1.75 1.75 0 0 0-1.75-1.75zm-1.75 8.719H52V59.5h5.219zM77.747 56h-8.719a1.75 1.75 0 0 0-1.75 1.75v8.719a1.75 1.75 0 0 0 1.75 1.75h8.719a1.749 1.749 0 0 0 1.75-1.75V57.75a1.749 1.749 0 0 0-1.75-1.75zM76 64.719h-5.222V59.5H76zM96.521 56H87.8a1.749 1.749 0 0 0-1.75 1.75v8.719a1.749 1.749 0 0 0 1.75 1.75h8.718a1.749 1.749 0 0 0 1.75-1.75V57.75A1.749 1.749 0 0 0 96.521 56zm-1.75 8.719h-5.218V59.5h5.218zM40.2 74h-8.721a1.749 1.749 0 0 0-1.75 1.75v8.719a1.749 1.749 0 0 0 1.75 1.75H40.2a1.749 1.749 0 0 0 1.75-1.75V75.75A1.749 1.749 0 0 0 40.2 74zm-1.75 8.719h-5.221V77.5h5.218zM58.972 74h-8.719a1.75 1.75 0 0 0-1.75 1.75v8.719a1.75 1.75 0 0 0 1.75 1.75h8.719a1.75 1.75 0 0 0 1.75-1.75V75.75a1.75 1.75 0 0 0-1.75-1.75zm-1.75 8.719H52V77.5h5.219zM77.747 74h-8.719a1.75 1.75 0 0 0-1.75 1.75v8.719a1.75 1.75 0 0 0 1.75 1.75h8.719a1.749 1.749 0 0 0 1.75-1.75V75.75a1.749 1.749 0 0 0-1.75-1.75zM76 82.719h-5.222V77.5H76zM96.521 74H87.8a1.749 1.749 0 0 0-1.75 1.75v8.719a1.749 1.749 0 0 0 1.75 1.75h8.718a1.749 1.749 0 0 0 1.75-1.75V75.75A1.749 1.749 0 0 0 96.521 74zm-1.75 8.719h-5.218V77.5h5.218zM40.2 92h-8.721a1.749 1.749 0 0 0-1.75 1.75v8.719a1.749 1.749 0 0 0 1.75 1.75H40.2a1.749 1.749 0 0 0 1.75-1.75V93.75A1.749 1.749 0 0 0 40.2 92zm-1.75 8.719h-5.221V95.5h5.218zM58.972 92h-8.719a1.75 1.75 0 0 0-1.75 1.75v8.719a1.75 1.75 0 0 0 1.75 1.75h8.719a1.75 1.75 0 0 0 1.75-1.75V93.75a1.75 1.75 0 0 0-1.75-1.75zm-1.75 8.719H52V95.5h5.219zM77.747 92h-8.719a1.75 1.75 0 0 0-1.75 1.75v8.719a1.75 1.75 0 0 0 1.75 1.75h8.719a1.749 1.749 0 0 0 1.75-1.75V93.75a1.749 1.749 0 0 0-1.75-1.75zM76 100.719h-5.222V95.5H76zM96.521 92H87.8a1.749 1.749 0 0 0-1.75 1.75v8.719a1.749 1.749 0 0 0 1.75 1.75h8.718a1.749 1.749 0 0 0 1.75-1.75V93.75A1.749 1.749 0 0 0 96.521 92zm-1.75 8.719h-5.218V95.5h5.218z"/></svg>

    <svg id="trash-can" xmlns="http://www.w3.org/2000/svg" width="800px" height="800px" viewBox="0 0 24 24" fill="none"> <path d="M5.16565 10.1534C5.07629 8.99181 5.99473 8 7.15975 8H16.8402C18.0053 8 18.9237 8.9918 18.8344 10.1534L18.142 19.1534C18.0619 20.1954 17.193 21 16.1479 21H7.85206C6.80699 21 5.93811 20.1954 5.85795 19.1534L5.16565 10.1534Z" stroke="#000000" stroke-width="2"/> <path d="M19.5 5H4.5" stroke="#000000" stroke-width="2" stroke-linecap="round"/> <path d="M10 3C10 2.44772 10.4477 2 11 2H13C13.5523 2 14 2.44772 14 3V5H10V3Z" stroke="#000000" stroke-width="2"/> </svg>
  </def>
  <svg id="none"></svg>
</svg>
