<svg>
  <def>

    <svg id="auz" xmlns="http://www.w3.org/2000/svg" width="44" height="44" viewBox="0 0 44 44" fill="none"> <circle cx="22" cy="22" r="22" fill="url(#paint0_linear_163_4244)"/> <path d="M16.3929 33.5052C17.1249 33.506 17.786 33.0681 18.0698 32.3942C19.07 30.0192 20.0723 27.6463 21.0746 25.2734L21.4543 24.3709C21.4772 24.3153 21.5034 24.2597 21.5329 24.1976L22.0174 23.1186L22.4953 24.1878C22.5215 24.2434 22.5411 24.2859 22.5575 24.3317L23.1402 25.7116C24.0666 27.9015 25.017 30.154 25.9585 32.3907C26.2422 33.0647 26.9034 33.5027 27.6355 33.5019C29.0002 33.5004 30.3644 33.5004 31.7267 33.5004C32.6333 33.5004 33.2485 32.5794 32.9004 31.7432L23.6868 9.60731C23.0673 8.11905 20.9572 8.11751 20.3356 9.60487L10.9892 31.9678C10.6839 32.6982 11.2211 33.5037 12.0135 33.5037C13.4733 33.5037 14.9331 33.5037 16.3929 33.5052Z" fill="white"/> <path style="mix-blend-mode:multiply" d="M16.9307 17.7526L10.3477 33.5036H12.0139C13.8765 33.5036 15.7392 33.5036 17.6018 33.5069C18.7573 30.7602 19.9162 28.0168 21.075 25.2733L21.4547 24.3709C21.4776 24.3153 21.5038 24.2597 21.5333 24.1975L22.0178 23.1185L19.7721 17.7494C19.2451 16.4905 17.4578 16.4905 16.9307 17.7494V17.7526Z" fill="url(#paint1_linear_163_4244)" fill-opacity="0.2"/> <defs> <linearGradient id="paint0_linear_163_4244" x1="22" y1="0" x2="22" y2="44" gradientUnits="userSpaceOnUse"> <stop stop-color="#201270"/> <stop offset="1" stop-color="#6230AB"/> </linearGradient> <linearGradient id="paint1_linear_163_4244" x1="15.3038" y1="28.8244" x2="22.6736" y2="16.7317" gradientUnits="userSpaceOnUse"> <stop stop-color="white"/> <stop offset="1"/> </linearGradient> </defs> </svg>

    <svg id="fiat" xmlns="http://www.w3.org/2000/svg" width="32" height="32" viewBox="0 0 32 32" fill="none"> <path d="M16 0C24.8374 0 32 7.16407 32 16C32 24.8374 24.8374 32 16 32C7.16407 32 0 24.8366 0 16C0 7.16407 7.16407 0 16 0Z" fill="url(#paint0_linear_201_17472)"/> <path d="M16.218 25.9564C15.898 25.9564 15.6362 25.8473 15.4325 25.6291C15.2289 25.4255 15.1271 25.1709 15.1271 24.8655V22.9236L15.6289 23.4036C14.6253 23.3745 13.7307 23.2436 12.9453 23.0109C12.1744 22.7782 11.5198 22.5091 10.9816 22.2036C10.7198 22.0436 10.538 21.8473 10.4362 21.6145C10.3344 21.3673 10.298 21.12 10.3271 20.8727C10.3562 20.6255 10.4434 20.4145 10.5889 20.24C10.7489 20.0509 10.9453 19.9345 11.178 19.8909C11.4107 19.8327 11.6798 19.8909 11.9853 20.0655C12.3925 20.2982 12.9234 20.5236 13.578 20.7418C14.2471 20.9455 15.0471 21.0473 15.978 21.0473C16.7053 21.0473 17.2944 20.96 17.7453 20.7855C18.1962 20.6109 18.5234 20.3709 18.7271 20.0655C18.9453 19.76 19.0544 19.4109 19.0544 19.0182C19.0544 18.6982 18.9816 18.4218 18.8362 18.1891C18.6907 17.9418 18.4507 17.7309 18.1162 17.5564C17.7816 17.3673 17.3307 17.2145 16.7634 17.0982L14.4507 16.5964C13.1271 16.3055 12.138 15.8182 11.4834 15.1345C10.8289 14.4509 10.5016 13.5564 10.5016 12.4509C10.5016 11.5927 10.7125 10.8291 11.1344 10.16C11.5562 9.47637 12.1453 8.93091 12.9016 8.52364C13.658 8.11637 14.5453 7.87637 15.5634 7.80364L15.1271 8.13091V6.29818C15.1271 5.99273 15.2289 5.73819 15.4325 5.53455C15.6362 5.31637 15.898 5.20728 16.218 5.20728C16.5234 5.20728 16.778 5.31637 16.9816 5.53455C17.1998 5.73819 17.3089 5.99273 17.3089 6.29818V8.13091L16.8507 7.78182C17.4762 7.79637 18.1598 7.92 18.9016 8.15273C19.658 8.38546 20.3053 8.71273 20.8434 9.13455C21.0616 9.30909 21.2071 9.51273 21.2798 9.74546C21.3525 9.96364 21.3598 10.1818 21.3016 10.4C21.2434 10.6036 21.1344 10.7782 20.9744 10.9236C20.8144 11.0691 20.6107 11.1564 20.3634 11.1855C20.1307 11.2 19.8616 11.12 19.5562 10.9455C19.1344 10.6982 18.6616 10.5018 18.138 10.3564C17.6144 10.1964 16.9889 10.1164 16.2616 10.1164C15.3307 10.1164 14.5962 10.3273 14.058 10.7491C13.5344 11.1564 13.2725 11.6945 13.2725 12.3636C13.2725 12.8582 13.4325 13.2582 13.7525 13.5636C14.0725 13.8545 14.618 14.0873 15.3889 14.2618L17.7671 14.7855C19.1634 15.0909 20.1889 15.5782 20.8434 16.2473C21.498 16.9018 21.8253 17.7673 21.8253 18.8436C21.8253 19.6873 21.6144 20.4364 21.1925 21.0909C20.7707 21.7309 20.1889 22.2473 19.4471 22.64C18.7198 23.0182 17.8689 23.2582 16.8944 23.36L17.3089 22.9018V24.8655C17.3089 25.1709 17.2071 25.4255 17.0034 25.6291C16.7998 25.8473 16.538 25.9564 16.218 25.9564Z" fill="white"/> <defs> <linearGradient id="paint0_linear_201_17472" x1="15.0427" y1="0" x2="15.0427" y2="46.4" gradientUnits="userSpaceOnUse"> <stop stop-color="#4EABEA"/> <stop offset="1" stop-color="#3981E1"/> </linearGradient> </defs> </svg>    
    
    <svg id="kyc" xmlns="http://www.w3.org/2000/svg" width="32" height="32" viewBox="0 0 32 32" fill="none"> <rect width="32" height="32" rx="16" fill="#E8E8FD"/> <path d="M16.0001 9.25C17.752 10.7999 20.0385 11.6069 22.3751 11.5C23.0625 13.8381 22.7722 16.3551 21.5707 18.4754C20.3692 20.5957 18.3592 22.1381 16.0001 22.75C13.6411 22.1381 11.6311 20.5957 10.4296 18.4754C9.22807 16.3551 8.93781 13.8381 9.62514 11.5C11.9618 11.6069 14.2483 10.7999 16.0001 9.25" stroke="#2E1975" stroke-width="1.5" stroke-linecap="round" stroke-linejoin="round"/> <circle cx="16" cy="15.25" r="0.75" stroke="#2E1975" stroke-width="1.5" stroke-linecap="round" stroke-linejoin="round"/> <path d="M16 16V17.875" stroke="#2E1975" stroke-width="1.5" stroke-linecap="round" stroke-linejoin="round"/> </svg>
    
    <svg id="currency" xmlns="http://www.w3.org/2000/svg" xmlns:xlink="http://www.w3.org/1999/xlink" version="1.1" id="Layer_1" x="0px" y="0px" viewBox="0 0 300.159 300.159" style="enable-background:new 0 0 300.159 300.159;" xml:space="preserve"> <g> <g> <path style="fill:#F9BA48;" d="M242.064,135.531c-32.035,0-58.095-26.061-58.095-58.095s26.061-58.095,58.095-58.095    s58.095,26.061,58.095,58.095S274.099,135.531,242.064,135.531z"/> <path style="fill:#F9BA48;" d="M58.095,135.531C26.061,135.531,0,109.471,0,77.436s26.061-58.095,58.095-58.095    s58.095,26.061,58.095,58.095S90.13,135.531,58.095,135.531z"/> <path style="fill:#F9BA48;" d="M150.08,290.453c-32.035,0-58.095-26.061-58.095-58.095s26.061-58.095,58.095-58.095    s58.095,26.061,58.095,58.095S182.115,290.453,150.08,290.453z"/> <path style="fill:#333333;" d="M246.906,72.595h-9.683c-5.34,0-9.683-4.343-9.683-9.683s4.343-9.683,9.683-9.683h9.683    c5.34,0,9.683,4.343,9.683,9.683h9.683c0-10.68-8.685-19.365-19.365-19.365v-9.683h-9.683v9.683    c-10.68,0-19.365,8.685-19.365,19.365s8.685,19.365,19.365,19.365h9.683c5.34,0,9.683,4.343,9.683,9.683s-4.343,9.683-9.683,9.683    h-9.683c-5.34,0-9.683-4.343-9.683-9.683h-9.683c0,10.68,8.685,19.365,19.365,19.365v9.683h9.683v-9.683    c10.68,0,19.365-8.685,19.365-19.365S257.585,72.595,246.906,72.595z"/> <path style="fill:#333333;" d="M58.095,111.325c9.581,0,18.775-4.115,25.209-11.29L76.1,93.567    c-4.604,5.132-11.169,8.075-18.005,8.075c-7.877,0-14.819-3.839-19.239-9.683h24.081v-9.683H34.378    c-0.32-1.564-0.489-3.186-0.489-4.841c0-1.656,0.169-3.278,0.489-4.841h28.559v-9.683H38.856    c4.425-5.843,11.367-9.683,19.239-9.683c6.836,0,13.401,2.944,18.005,8.075l7.204-6.468c-6.434-7.175-15.628-11.29-25.209-11.29    c-13.483,0-25.117,7.935-30.573,19.365h-8.158v9.683h5.229c-0.228,1.588-0.387,3.195-0.387,4.841s0.16,3.253,0.387,4.841h-5.229    v9.683h8.158C32.979,103.39,44.612,111.325,58.095,111.325z"/> <polygon style="fill:#333333;" points="170.563,200.212 150.08,224.796 129.596,200.212 122.15,206.408 143.776,232.357     130.715,232.357 130.715,242.04 145.239,242.04 145.239,246.882 130.715,246.882 130.715,256.564 145.239,256.564     145.239,266.246 154.921,266.246 154.921,256.564 169.445,256.564 169.445,246.882 154.921,246.882 154.921,242.04     169.445,242.04 169.445,232.357 156.383,232.357 178.009,206.408   "/> <path style="fill:#333333;" d="M216.851,208.799l6.081,7.543c21.147-17.046,35.729-41.006,41.049-67.468l-9.494-1.912    C249.612,171.212,236.245,193.173,216.851,208.799z"/> <path style="fill:#333333;" d="M45.673,146.962l-9.494,1.912c5.325,26.458,19.903,50.422,41.049,67.468l6.081-7.538    C63.915,193.173,50.548,171.212,45.673,146.962z"/> <path style="fill:#333333;" d="M104.528,18.939l3.8,8.908c26.448-11.285,57.055-11.285,83.502,0l3.8-8.908    C166.763,6.627,133.397,6.627,104.528,18.939z"/> </g> </g> <g> </g> <g> </g> <g> </g> <g> </g> <g> </g> <g> </g> <g> </g> <g> </g> <g> </g> <g> </g> <g> </g> <g> </g> <g> </g> <g> </g> <g> </g> </svg>
    <!-- Input image -->
    <svg id="image-box" xmlns="http://www.w3.org/2000/svg" width="60px" height="60px" viewBox="0 0 512 512"><path d="M464 64H48C21.49 64 0 85.49 0 112v288c0 26.51 21.49 48 48 48h416c26.51 0 48-21.49 48-48V112c0-26.51-21.49-48-48-48zm-6 336H54a6 6 0 0 1-6-6V118a6 6 0 0 1 6-6h404a6 6 0 0 1 6 6v276a6 6 0 0 1-6 6zM128 152c-22.091 0-40 17.909-40 40s17.909 40 40 40 40-17.909 40-40-17.909-40-40-40zM96 352h320v-80l-87.515-87.515c-4.686-4.686-12.284-4.686-16.971 0L192 304l-39.515-39.515c-4.686-4.686-12.284-4.686-16.971 0L96 304v48z"/></svg>

    <svg id="add-user" xmlns="http://www.w3.org/2000/svg" xmlns:xlink="http://www.w3.org/1999/xlink" x="0px" y="0px" width="612px" height="612px" viewBox="0 0 612 612" style="enable-background:new 0 0 612 612;" xml:space="preserve"> <g> <path d="M275.4,295.8c81.682,0,147.899-66.217,147.899-147.9C423.299,66.218,357.082,0,275.4,0c-81.683,0-147.9,66.217-147.9,147.9   C127.5,229.583,193.717,295.8,275.4,295.8z M345.461,206.604c-6.729,22.246-35.549,38.968-70.09,38.968   c-34.542,0-63.363-16.723-70.091-38.968H345.461z M586.5,510v20.4c0,5.634-4.566,10.2-10.199,10.2H515.1V601.8   c0,5.634-4.566,10.2-10.199,10.2h-20.4c-5.633,0-10.199-4.566-10.199-10.2v-61.199H413.1c-5.633,0-10.199-4.566-10.199-10.2V510   c0-5.633,4.566-10.199,10.199-10.199h61.201v-61.2c0-5.634,4.566-10.2,10.199-10.2h20.4c5.633,0,10.199,4.566,10.199,10.2v61.2   h61.201C581.934,499.8,586.5,504.367,586.5,510z M382.5,510v20.4c0,5.419,1.535,10.438,4.016,14.857   c-30.803,3.35-67.52,5.542-111.116,5.542c-142.607,0-212.393-23.302-237.979-34.686c-6.602-2.938-11.921-11.336-11.921-18.562   V448.8c0-73.056,55.624-133.663,126.599-141.78c2.157-0.247,5.355,0.677,7.113,1.949C191.938,332.66,232.002,346.8,275.4,346.8   s83.463-14.14,116.188-37.831c1.758-1.272,4.957-2.196,7.113-1.949c58.746,6.719,106.869,49.438,121.744,105.37   c-4.572-2.724-9.848-4.389-15.545-4.389h-20.4c-16.873,0-30.6,13.726-30.6,30.6v40.8H413.1C396.227,479.4,382.5,493.126,382.5,510z   "/> </g> <g> </g> <g> </g> <g> </g> <g> </g> <g> </g> <g> </g> <g> </g> <g> </g> <g> </g> <g> </g> <g> </g> <g> </g> <g> </g> <g> </g> <g> </g> </svg>
   
    <svg id="user" xmlns="http://www.w3.org/2000/svg" width="32" height="32" viewBox="0 0 32 32" fill="none"> <rect width="32" height="32" rx="16" fill="#E8E8FD"/> <circle cx="16" cy="16" r="7.875" stroke="#2E1975" stroke-width="1.5" stroke-linecap="round" stroke-linejoin="round"/> <circle cx="16" cy="14.25" r="2.625" stroke="#2E1975" stroke-width="1.5" stroke-linecap="round" stroke-linejoin="round"/> <path d="M10.897 21.9929C11.3417 20.5128 12.7045 19.4995 14.25 19.5H17.75C19.2975 19.4995 20.6617 20.5153 21.1047 21.9981" stroke="#2E1975" stroke-width="1.5" stroke-linecap="round" stroke-linejoin="round"/> </svg>
    
    <svg id="user-extra" xmlns="http://www.w3.org/2000/svg" xmlns:xlink="http://www.w3.org/1999/xlink" version="1.1" id="Capa_1" x="0px" y="0px" width="612px" height="612px" viewBox="0 0 612 612" style="enable-background:new 0 0 612 612;" xml:space="preserve"> <g> <path d="M306,328.667c90.759,0,164.333-73.575,164.333-164.333S396.759,0,306,0c-90.759,0-164.333,73.575-164.333,164.333   S215.241,328.667,306,328.667z M383.878,229.376c-7.475,24.718-39.498,43.298-77.878,43.298c-38.38,0-70.403-18.581-77.878-43.298   H383.878z M583.667,498.667v54.169c0,8.029-5.912,17.359-13.246,20.624C541.993,586.109,464.45,612,306,612   c-158.451,0-235.992-25.891-264.42-38.54c-7.335-3.265-13.246-12.595-13.246-20.624v-54.169   c0-81.174,61.804-148.515,140.666-157.533c2.396-0.275,5.949,0.751,7.903,2.165c36.361,26.324,80.877,42.035,129.097,42.035   s92.738-15.711,129.097-42.035c1.955-1.414,5.508-2.44,7.904-2.165C521.862,350.152,583.667,417.493,583.667,498.667z"/> </g> <g> </g> <g> </g> <g> </g> <g> </g> <g> </g> <g> </g> <g> </g> <g> </g> <g> </g> <g> </g> <g> </g> <g> </g> <g> </g> <g> </g> <g> </g> </svg>

    <svg id="trash-can" xmlns="http://www.w3.org/2000/svg" xmlns:xlink="http://www.w3.org/1999/xlink"x="0px" y="0px" viewBox="0 0 443 443" style="enable-background:new 0 0 443 443;" xml:space="preserve"> <g> <path d="M321.785,38h-83.384V0H125.169v38H41.785v60h280V38z M155.169,30h53.232v8h-53.232V30z"/> <path d="M295.142,214.31l5.66-86.31H62.769l19.016,290h114.172c-14.861-21.067-23.602-46.746-23.602-74.43   C172.355,274.43,226.849,217.779,295.142,214.31z"/> <path d="M301.785,244.141c-54.826,0-99.43,44.604-99.43,99.429S246.959,443,301.785,443s99.43-44.604,99.43-99.43   S356.611,244.141,301.785,244.141z M355.961,376.533l-21.213,21.213l-32.963-32.963l-32.963,32.963l-21.213-21.213l32.963-32.963   l-32.963-32.963l21.213-21.213l32.963,32.963l32.963-32.963l21.213,21.213l-32.963,32.963L355.961,376.533z"/> </g> <g> </g> <g> </g> <g> </g> <g> </g> <g> </g> <g> </g> <g> </g> <g> </g> <g> </g> <g> </g> <g> </g> <g> </g> <g> </g> <g> </g> <g> </g> </svg>

    <svg id="loader" xmlns="http://www.w3.org/2000/svg" xmlns:xlink="http://www.w3.org/1999/xlink" x="0px" y="0px" viewBox="0 0 50 100" enable-background="new 0 0 0 0" xml:space="preserve" > <circle fill="#f44336" stroke="none" cx="6" cy="50" r="6"> <animate attributeName="opacity" dur="1s" values="0;1;0" repeatCount="indefinite" begin="0.1" /> </circle> <circle fill="#f44336" stroke="none" cx="26" cy="50" r="6"> <animate attributeName="opacity" dur="1s" values="0;1;0" repeatCount="indefinite" begin="0.2" /> </circle> <circle fill="#f44336" stroke="none" cx="46" cy="50" r="6"> <animate attributeName="opacity" dur="1s" values="0;1;0" repeatCount="indefinite" begin="0.3" /> </circle> </svg>
    
    <svg id="no-data" xmlns="http://www.w3.org/2000/svg" xmlns:xlink="http://www.w3.org/1999/xlink" x="0px" y="0px" viewBox="0 0 511.999 511.999" style="enable-background:new 0 0 511.999 511.999;" xml:space="preserve"> <path style="fill:#78C8E6;" d="M465.648,145.416c4.052-21.912,11.094-43.039,15.248-63.762H31.104c2.785,11.648,0.065,0,0,0  c6.67,33.633,17.234,67.67,24.7,103.287l166.489,61.149L465.648,145.416z"/> <polygon style="fill:#A6E7FF;" points="503.197,145.416 346.206,145.416 334.469,184.941 8.803,184.941 67.489,430.345   444.512,430.345 "/> <path d="M454.931,379.761c-4.766-0.984-9.417,2.083-10.398,6.846l-7.196,34.936H74.435L38.171,269.896  c-1.13-4.728-5.885-7.643-10.609-6.514c-4.729,1.13-7.646,5.88-6.514,10.609l37.879,158.402c0.947,3.961,4.488,6.756,8.561,6.756  h377.023c4.177,0,7.779-2.935,8.622-7.027l8.643-41.961C462.757,385.396,459.691,380.741,454.931,379.761z"/> <path d="M503.197,136.614h-26.741c1.783-7.921,11.087-43.332,13.07-53.229c0.519-2.587-0.15-5.269-1.822-7.31  c-1.673-2.041-4.171-3.224-6.809-3.224h-70.169c-4.862,0-8.803,3.941-8.803,8.803s3.941,8.803,8.803,8.803h59.21  c-1.415,5.933-9.475,36.621-11.502,46.156H346.206c-3.897,0-7.33,2.562-8.438,6.297l-9.867,33.229H62.908  c-3.296-14.889-7.054-29.528-10.707-43.748c-3.705-14.423-7.246-28.209-10.262-41.933h321.197c4.862,0,8.803-3.941,8.803-8.803  s-3.941-8.803-8.803-8.803c0,0-332.018,0-332.588,0.018c-5.228,0.157-9.08,5.504-8.079,10.512  c3.514,17.714,8.173,35.85,12.677,53.39c3.302,12.85,6.684,26.047,9.711,39.369H8.803c-2.695,0-5.241,1.235-6.911,3.35  c-1.669,2.116-2.277,4.879-1.651,7.501l12.385,51.79c1.13,4.729,5.885,7.644,10.609,6.514c4.729-1.13,7.646-5.88,6.514-10.609  l-9.791-40.94h314.51c3.897,0,7.33-2.562,8.438-6.297l9.867-33.228h112.845c0.012,0,0.025,0.001,0.038,0.001  c0.013,0,0.026-0.001,0.039-0.001h26.7l-40.612,197.177c-0.98,4.762,2.085,9.417,6.846,10.398c0.6,0.123,1.197,0.183,1.785,0.183  c4.089,0,7.755-2.866,8.613-7.028l42.791-207.755c0.534-2.592-0.127-5.286-1.798-7.337S505.843,136.614,503.197,136.614z"/> <g> </g> <g> </g> <g> </g> <g> </g> <g> </g> <g> </g> <g> </g> <g> </g> <g> </g> <g> </g> <g> </g> <g> </g> <g> </g> <g> </g> <g> </g> </svg>

    <svg id="arrows-up-down" xmlns="http://www.w3.org/2000/svg" viewBox="0 0 32 32"><g data-name="81-Arrow Exchange"><path d="m16.71 7.29-7-7a1 1 0 0 0-1.41 0l-7 7 1.41 1.42L8 3.41V32h2V3.41l5.29 5.29zM29.29 23.29 24 28.59V0h-2v28.59l-5.29-5.29-1.41 1.41 7 7a1 1 0 0 0 1.41 0l7-7z"/></g></svg>

    <svg id="arrow-up" xmlns="http://www.w3.org/2000/svg" data-name="1-Arrow Up" viewBox="0 0 32 32"><path d="m26.71 10.29-10-10a1 1 0 0 0-1.41 0l-10 10 1.41 1.41L15 3.41V32h2V3.41l8.29 8.29z"/></svg>
    
    <svg id="arrow-down" xmlns="http://www.w3.org/2000/svg" viewBox="0 0 32 32"><path d="M26.29 20.29 18 28.59V0h-2v28.59l-8.29-8.3-1.42 1.42 10 10a1 1 0 0 0 1.41 0l10-10z" data-name="2-Arrow Down"/></svg>

    <svg id="arrow-back" xmlns="http://www.w3.org/2000/svg" xmlns:xlink="http://www.w3.org/1999/xlink"  x="0px" y="0px" viewBox="0 0 52.502 52.502" style="enable-background:new 0 0 52.502 52.502;" xml:space="preserve"> <path d="M51.718,50.857l-1.341-2.252C40.075,31.295,25.975,32.357,22.524,32.917v13.642L0,23.995L22.524,1.644v13.43  c0.115,0,0.229-0.001,0.344-0.001c12.517,0,18.294,5.264,18.542,5.496c13.781,11.465,10.839,27.554,10.808,27.715L51.718,50.857z   M25.505,30.735c5.799,0,16.479,1.923,24.993,14.345c0.128-4.872-0.896-15.095-10.41-23.012c-0.099-0.088-5.935-5.364-18.533-4.975  l-1.03,0.03V6.447L2.832,24.001l17.692,17.724V31.311l0.76-0.188C21.338,31.109,22.947,30.735,25.505,30.735z"/> <g> </g> <g> </g> <g> </g> <g> </g> <g> </g> <g> </g> <g> </g> <g> </g> <g> </g> <g> </g> <g> </g> <g> </g> <g> </g> <g> </g> <g> </g> </svg>
    
    <svg id="calendar" data-name="Layer 1" xmlns="http://www.w3.org/2000/svg" viewBox="0 0 128 128"><path d="M113.854 22.323h-9.667v-2.677a7.25 7.25 0 0 0-14.5 0v2.677H38.313v-2.677a7.25 7.25 0 0 0-14.5 0v2.677h-9.667a1.75 1.75 0 0 0-1.75 1.75v89.781a1.751 1.751 0 0 0 1.75 1.75h99.708a1.751 1.751 0 0 0 1.75-1.75V24.073a1.75 1.75 0 0 0-1.75-1.75zm-20.667-2.677a3.75 3.75 0 0 1 7.5 0V28.5a3.75 3.75 0 0 1-7.5 0zm-65.874 0a3.75 3.75 0 0 1 7.5 0V28.5a3.75 3.75 0 0 1-7.5 0zm-3.5 6.177V28.5a7.25 7.25 0 0 0 14.5 0v-2.677h51.374V28.5a7.25 7.25 0 0 0 14.5 0v-2.677h7.913V44.2H15.9V25.823zM15.9 112.1V47.7h96.2v64.4z"/><path d="M40.2 56h-8.721a1.749 1.749 0 0 0-1.75 1.75v8.719a1.749 1.749 0 0 0 1.75 1.75H40.2a1.749 1.749 0 0 0 1.75-1.75V57.75A1.749 1.749 0 0 0 40.2 56zm-1.75 8.719h-5.221V59.5h5.218zM58.972 56h-8.719a1.75 1.75 0 0 0-1.75 1.75v8.719a1.75 1.75 0 0 0 1.75 1.75h8.719a1.75 1.75 0 0 0 1.75-1.75V57.75a1.75 1.75 0 0 0-1.75-1.75zm-1.75 8.719H52V59.5h5.219zM77.747 56h-8.719a1.75 1.75 0 0 0-1.75 1.75v8.719a1.75 1.75 0 0 0 1.75 1.75h8.719a1.749 1.749 0 0 0 1.75-1.75V57.75a1.749 1.749 0 0 0-1.75-1.75zM76 64.719h-5.222V59.5H76zM96.521 56H87.8a1.749 1.749 0 0 0-1.75 1.75v8.719a1.749 1.749 0 0 0 1.75 1.75h8.718a1.749 1.749 0 0 0 1.75-1.75V57.75A1.749 1.749 0 0 0 96.521 56zm-1.75 8.719h-5.218V59.5h5.218zM40.2 74h-8.721a1.749 1.749 0 0 0-1.75 1.75v8.719a1.749 1.749 0 0 0 1.75 1.75H40.2a1.749 1.749 0 0 0 1.75-1.75V75.75A1.749 1.749 0 0 0 40.2 74zm-1.75 8.719h-5.221V77.5h5.218zM58.972 74h-8.719a1.75 1.75 0 0 0-1.75 1.75v8.719a1.75 1.75 0 0 0 1.75 1.75h8.719a1.75 1.75 0 0 0 1.75-1.75V75.75a1.75 1.75 0 0 0-1.75-1.75zm-1.75 8.719H52V77.5h5.219zM77.747 74h-8.719a1.75 1.75 0 0 0-1.75 1.75v8.719a1.75 1.75 0 0 0 1.75 1.75h8.719a1.749 1.749 0 0 0 1.75-1.75V75.75a1.749 1.749 0 0 0-1.75-1.75zM76 82.719h-5.222V77.5H76zM96.521 74H87.8a1.749 1.749 0 0 0-1.75 1.75v8.719a1.749 1.749 0 0 0 1.75 1.75h8.718a1.749 1.749 0 0 0 1.75-1.75V75.75A1.749 1.749 0 0 0 96.521 74zm-1.75 8.719h-5.218V77.5h5.218zM40.2 92h-8.721a1.749 1.749 0 0 0-1.75 1.75v8.719a1.749 1.749 0 0 0 1.75 1.75H40.2a1.749 1.749 0 0 0 1.75-1.75V93.75A1.749 1.749 0 0 0 40.2 92zm-1.75 8.719h-5.221V95.5h5.218zM58.972 92h-8.719a1.75 1.75 0 0 0-1.75 1.75v8.719a1.75 1.75 0 0 0 1.75 1.75h8.719a1.75 1.75 0 0 0 1.75-1.75V93.75a1.75 1.75 0 0 0-1.75-1.75zm-1.75 8.719H52V95.5h5.219zM77.747 92h-8.719a1.75 1.75 0 0 0-1.75 1.75v8.719a1.75 1.75 0 0 0 1.75 1.75h8.719a1.749 1.749 0 0 0 1.75-1.75V93.75a1.749 1.749 0 0 0-1.75-1.75zM76 100.719h-5.222V95.5H76zM96.521 92H87.8a1.749 1.749 0 0 0-1.75 1.75v8.719a1.749 1.749 0 0 0 1.75 1.75h8.718a1.749 1.749 0 0 0 1.75-1.75V93.75A1.749 1.749 0 0 0 96.521 92zm-1.75 8.719h-5.218V95.5h5.218z"/></svg>

    <!-- 404-page-not-found -->
    <svg id="page-not-found" xmlns="http://www.w3.org/2000/svg" viewBox="0 0 500 500">
      <g id="freepik--background-complete--inject-15"><rect y="382.4" width="500" height="0.25" style="fill: #ebebeb" /><path d="M237,337.8H43.91a5.71,5.71,0,0,1-5.7-5.71V60.66A5.71,5.71,0,0,1,43.91,55H237a5.71,5.71,0,0,1,5.71,5.71V332.09A5.71,5.71,0,0,1,237,337.8ZM43.91,55.2a5.46,5.46,0,0,0-5.45,5.46V332.09a5.46,5.46,0,0,0,5.45,5.46H237a5.47,5.47,0,0,0,5.46-5.46V60.66A5.47,5.47,0,0,0,237,55.2Z" style="fill: #ebebeb" /><path d="M453.31,337.8H260.21a5.72,5.72,0,0,1-5.71-5.71V60.66A5.72,5.72,0,0,1,260.21,55h193.1A5.71,5.71,0,0,1,459,60.66V332.09A5.71,5.71,0,0,1,453.31,337.8ZM260.21,55.2a5.47,5.47,0,0,0-5.46,5.46V332.09a5.47,5.47,0,0,0,5.46,5.46h193.1a5.47,5.47,0,0,0,5.46-5.46V60.66a5.47,5.47,0,0,0-5.46-5.46Z" style="fill: #ebebeb" /><rect x="418.33" y="391.92" width="31.57" height="0.25" style="fill: #ebebeb" /><rect x="301.93" y="389.21" width="33.41" height="0.25" style="fill: #ebebeb" /><rect x="396.59" y="401.21" width="62.43" height="0.25" style="fill: #ebebeb" /><rect x="52.46" y="399.53" width="19.23" height="0.25" style="fill: #ebebeb" /><rect x="80.6" y="399.53" width="30.29" height="0.25" style="fill: #ebebeb" /><rect x="189.58" y="395.31" width="54.56" height="0.25" style="fill: #ebebeb" /><polygon points="272.26 118.13 215.28 175.12 215.28 364.91 415.27 364.91 415.27 118.13 272.26 118.13" style="fill: #fff"/><path d="M415.27,365.45h-200a.54.54,0,0,1-.54-.54V175.12a.53.53,0,0,1,.16-.38l57-57a.57.57,0,0,1,.38-.16h143a.54.54,0,0,1,.54.54V364.91A.54.54,0,0,1,415.27,365.45Zm-199.45-1.07H414.73V118.67H272.49l-56.67,56.67Z" style="fill: #e0e0e0"/><polygon points="215.28 175.12 275.07 182.83 272.26 118.13 215.28 175.12" style="fill: #e6e6e6" /><polygon points="215.28 175.12 272.26 175.12 272.26 118.13 215.28 175.12" style="fill: #fff" /><path d="M272.26,175.65h-57a.54.54,0,0,1-.5-.33.52.52,0,0,1,.12-.58l57-57a.56.56,0,0,1,.59-.12.55.55,0,0,1,.33.5v57A.54.54,0,0,1,272.26,175.65Zm-55.68-1.07h55.15V119.43Z" style="fill: #e0e0e0"/><path d="M326.84,257.19l34-34a8.18,8.18,0,1,0-11.57-11.57l-34,34-34-34a8.18,8.18,0,0,0-11.57,11.57l34,34-34,34a8.18,8.18,0,0,0,11.57,11.57l34-34,34,34a8.18,8.18,0,1,0,11.57-11.57Z" style="fill: #f0f0f0" /> <path d="M223,229h0a10.23,10.23,0,0,1-14.46,0l-32.81-32.82,14.46-14.46L223,214.58A10.23,10.23,0,0,1,223,229Z" style="fill: #f0f0f0" /> <path d="M176,187.63h20.45a0,0,0,0,1,0,0v1.89a7.39,7.39,0,0,1-7.39,7.39h-5.67a7.39,7.39,0,0,1-7.39-7.39v-1.89A0,0,0,0,1,176,187.63Z" transform="translate(-81.4 188.02) rotate(-45)" style="fill: #e0e0e0" /> <path d="M84.71,90.71a71,71,0,1,0,100.46,0A71,71,0,0,0,84.71,90.71Zm96.36,96.36a65.23,65.23,0,1,1,0-92.25A65.23,65.23,0,0,1,181.07,187.07Z" style="fill: #e0e0e0" /> <path d="M172.26,180.65a2.38,2.38,0,0,1-1.68-4.06,50.48,50.48,0,0,0,0-71.29,2.38,2.38,0,1,1,3.36-3.36,55.22,55.22,0,0,1,0,78A2.38,2.38,0,0,1,172.26,180.65Z" style="fill: #e0e0e0" /> <path d="M83.58,155.53a2.37,2.37,0,0,1-2.31-1.83,55.37,55.37,0,0,1,7.6-43.11,2.38,2.38,0,0,1,4,2.62,50.65,50.65,0,0,0-7,39.4,2.36,2.36,0,0,1-1.76,2.86A2.64,2.64,0,0,1,83.58,155.53Z" style="fill: #e0e0e0" /> <path d="M97.62,180.65a2.38,2.38,0,0,1-1.68-.7,54.8,54.8,0,0,1-10.5-14.64,2.37,2.37,0,0,1,4.26-2.1,50.51,50.51,0,0,0,9.6,13.38,2.38,2.38,0,0,1,0,3.36A2.41,2.41,0,0,1,97.62,180.65Z" style="fill: #e0e0e0" /> <path d="M196.15,319.72h13.22a0,0,0,0,1,0,0v30.7a5.92,5.92,0,0,1-5.92,5.92h-1.39a5.92,5.92,0,0,1-5.92-5.92v-30.7a0,0,0,0,1,0,0Z" transform="translate(298.41 -44.37) rotate(45)" style="fill: #f0f0f0" /> <path d="M207,324.2H220.2a0,0,0,0,1,0,0v.63a5.37,5.37,0,0,1-5.37,5.37h-2.48a5.37,5.37,0,0,1-5.37-5.37v-.63A0,0,0,0,1,207,324.2Z" transform="translate(293.92 -55.19) rotate(45)" style="fill: #e0e0e0" /> <path d="M284.35,269.7l-21.9,21.89A13.74,13.74,0,0,0,281.88,311l8.86-8.85A47.07,47.07,0,0,0,284.35,269.7Z" style="fill: #f0f0f0" /> <path d="M292.6,290.82a45.94,45.94,0,1,0-42.64,49A45.94,45.94,0,0,0,292.6,290.82Zm-87.91,6.12a42.18,42.18,0,1,1,45,39.15A42.18,42.18,0,0,1,204.69,296.94Z" style="fill: #e0e0e0" /> <path d="M223.38,320.91a35.58,35.58,0,0,1-12.19-24.42,1.54,1.54,0,1,1,3.07-.21A32.64,32.64,0,0,0,249,326.53a1.53,1.53,0,1,1,.21,3.06A35.53,35.53,0,0,1,223.38,320.91Z" style="fill: #e0e0e0" /> <path d="M278.64,286a1.51,1.51,0,0,1-.47-.75,32.72,32.72,0,0,0-16.27-20.1,1.54,1.54,0,0,1,1.42-2.73,35.82,35.82,0,0,1,17.81,22,1.53,1.53,0,0,1-1.07,1.89A1.56,1.56,0,0,1,278.64,286Z" style="fill: #e0e0e0" /> <path d="M243.39,261.13a1.56,1.56,0,0,1-.52-1.06,1.54,1.54,0,0,1,1.42-1.64,35.88,35.88,0,0,1,11.6,1.09,1.54,1.54,0,1,1-.79,3,32.48,32.48,0,0,0-10.59-1A1.58,1.58,0,0,1,243.39,261.13Z" style="fill: #e0e0e0" /> </g> <g id="freepik--Shadow--inject-15"> <ellipse id="freepik--path--inject-15" cx="250" cy="416.24" rx="193.89" ry="11.32" style="fill: #f5f5f5" /> </g>
      <g id="freepik--character-1--inject-15"> <path d="M137.82,145.88c-8.06,8.11,5.64,20.7-3.41,26.48,7.39,3.71,33.29,8.42,40-6.17-4.89-3.8-1.49-13.14-6-22.11C161.66,130.78,129.76,136.67,137.82,145.88Z" style="fill: #263238" /> <path d="M138.55,145.67c-2.51-.42-11,3.8-4.68,15.13,5.09,9.16.85,9.81.85,9.81s5,.14,2-6.67C133.54,156.67,132.05,149.13,138.55,145.67Z" style="fill: #263238" /> <path d="M198,217.61a2.46,2.46,0,0,0-3.3-1l-.59.31c-.19.1-.55.34-.84.51s-.63.36-.95.52a15.54,15.54,0,0,1-1.95.82,12.28,12.28,0,0,1-3.85.73,10.57,10.57,0,0,1-3.55-.57,12.76,12.76,0,0,1-2.09-1c-.86-1.9-1.68-3.82-2.38-5.8-.85-2.31-1.6-4.67-2.26-7.06s-1.24-4.81-1.72-7.24c-.25-1.21-.47-2.43-.67-3.64l-.27-1.81c-.09-.58-.17-1.24-.22-1.7l0-.2a5,5,0,0,0-10,1c.07.85.13,1.5.22,2.21s.19,1.39.29,2.08c.22,1.38.47,2.74.75,4.1a76.87,76.87,0,0,0,2.1,8c.39,1.32.87,2.62,1.32,3.93s1,2.59,1.57,3.86a72.36,72.36,0,0,0,3.71,7.49l.12.22a3.89,3.89,0,0,0,1.55,1.54,20.26,20.26,0,0,0,6.05,2.14,16.83,16.83,0,0,0,6.56-.14,17.3,17.3,0,0,0,8.09-4.39c.37-.34.72-.69,1-1.06s.62-.72,1-1.24A2.46,2.46,0,0,0,198,217.61Z" style="fill: #ff8b7b" /> <path d="M204.65,208.25h-.29a6.23,6.23,0,0,0-5,2.34l-4.83,6.06,0,4.14c3.88,1.54,8.8-2.61,8.8-2.61l2.49-.63a3.49,3.49,0,0,0,2.61-3.88l-.36-2.43A3.48,3.48,0,0,0,204.65,208.25Z" style="fill: #ff8b7b" /> <path d="M173.23,184.88c3.23,3.32,3.43,13.23,3.43,13.23l-12.92,10.4s-5.31-14.7-2.37-19.89C163.86,184.22,169.11,180.65,173.23,184.88Z" style="fill: #407bff" /> <g style="opacity: 0.2"> <path d="M173.23,184.88c3.23,3.32,3.43,13.23,3.43,13.23l-12.92,10.4s-5.31-14.7-2.37-19.89C163.86,184.22,169.11,180.65,173.23,184.88Z" style="fill: #fff" /> </g> <polygon points="151.85 407.67 158.99 408.45 159.97 389.05 152.83 388.26 151.85 407.67" style="fill: #ff8b7b" /> <path d="M160.16,403.79h-8.39a.65.65,0,0,0-.67.61l-.56,7.93a1.59,1.59,0,0,0,1.55,1.59c3.54,0,3.58,0,8,0H172c3.66,0,3.67-3.71,2.09-4.05-7.11-1.5-9.88-3.58-12.39-5.56A2.5,2.5,0,0,0,160.16,403.79Z" style="fill: #263238" /> <polygon points="159.97 389.06 159.46 399.06 152.28 399.06 152.83 388.27 159.97 389.06" style="opacity: 0.2" /> <path d="M163.82,234.27S170,286,170,309c-4.87,32-9,88.16-9,88.16l-9.88-.26s-4.49-61.16-.33-87.57c-5.33-23.66-11.91-78.26-11.91-78.26Z" style="fill: #263238" /> <path d="M144.77,248.67a29.51,29.51,0,0,0-3.42,1.78c1.36,10.21,3.15,23.06,5.05,34.92C149.64,275.61,147.89,254.15,144.77,248.67Z" style="opacity: 0.2" /> <polygon points="74.53 389.66 80.42 393.77 90.58 377.21 84.69 373.1 74.53 389.66" style="fill: #ff8b7b" /> <path d="M81.91,391.6l-5-6.73a.64.64,0,0,0-.88-.17l-6.7,4.3a1.58,1.58,0,0,0-.35,2.19c2.09,2.85,2.13,2.87,4.76,6.41,1.63,2.17,4.88,6.54,7.12,9.55s5.17.73,4.49-.75c-3-6.59-3-10-2.94-13.24A2.54,2.54,0,0,0,81.91,391.6Z" style="fill: #263238" /> <polygon points="90.57 377.21 85.34 385.75 79.03 382.31 84.69 373.1 90.57 377.21" style="opacity: 0.2" /> <path d="M110.66,396.6c-5.11,0-15.75,0-15.93-7.52-.14-5.9,7.16-8.35,13.46-8.65a5.32,5.32,0,0,1,5.57,5.06v.4c7.14-.34,11.76-1.9,13.45-4.56,3.81-6-3.49-21.49-10.54-36.46-8.3-17.61-17.7-37.56-17.88-56.67a5.32,5.32,0,0,1,5.27-5.37h0a5.33,5.33,0,0,1,5.32,5.27c.16,16.78,9,35.61,16.86,52.23,9,19.18,16.85,35.75,9.9,46.7C132.11,393.47,123.76,396.6,110.66,396.6Z" style="fill: #407bff" /> <path d="M155.91,233.25s-17.06,59.12-25.39,80.56c-16.14,28.06-42.92,71-42.92,71l-8.55-5s20-49.6,33.45-72.7c3.61-24,17.26-77.26,17.26-77.26Z" style="fill: #263238" /> <path d="M83.45,396.43a2.85,2.85,0,0,0,1.48,1.21,1,1,0,0,0,1-.33.7.7,0,0,0,.22-.61c-.12-1.2-3.22-2.76-3.84-3.06a.16.16,0,0,0-.2.07.23.23,0,0,0,0,.25A14.78,14.78,0,0,0,83.45,396.43Zm2.13,0a.83.83,0,0,1,.17.38.24.24,0,0,1-.08.21.69.69,0,0,1-.66.22c-.66-.13-1.53-1.2-2.37-2.89A10.54,10.54,0,0,1,85.58,396.39Z" style="fill: #407bff" /> <path d="M82.06,394l.06.05c1,.55,3.6,1,4.17.17a.87.87,0,0,0-.05-1c-1-1.77-4,.31-4.13.4a.24.24,0,0,0-.09.2A.33.33,0,0,0,82.06,394Zm3.8-.58a1,1,0,0,1,.08.11c.11.19.13.33.07.41-.33.48-2.25.31-3.37-.13C83.39,393.36,85.14,392.45,85.86,393.42Z" style="fill: #407bff" /> <path d="M165,405.44a2.89,2.89,0,0,0,1.86-.47,1,1,0,0,0,.31-1,.75.75,0,0,0-.36-.55c-1-.61-4.13.94-4.74,1.26a.17.17,0,0,0-.08.2.27.27,0,0,0,.19.17A13.93,13.93,0,0,0,165,405.44Zm1.24-1.73a.76.76,0,0,1,.41.09c.05,0,.1.07.12.19a.68.68,0,0,1-.22.66c-.49.45-1.87.51-3.73.18A10.42,10.42,0,0,1,166.19,403.71Z" style="fill: #407bff" /> <path d="M162.18,405.1l.07,0c1-.46,2.95-2.29,2.63-3.24a.87.87,0,0,0-.8-.53c-2-.23-2.14,3.39-2.15,3.54a.24.24,0,0,0,.11.2A.24.24,0,0,0,162.18,405.1Zm1.8-3.4h.14c.21,0,.34.09.37.19.19.55-1.09,2-2.12,2.63C162.46,403.65,162.78,401.7,164,401.7Z" style="fill: #407bff" /> <path d="M129.76,229.9l34.06,4.36c7.68-25.86,10.21-38.35,10.89-44.36a6.53,6.53,0,0,0-4.52-7c-2-.64-4.58-1.4-7.14-2-.87-.23-1.76-.44-2.63-.64a109.08,109.08,0,0,0-15.46-2c-.77-.07-1.53-.11-2.3-.15-1.51-.08-3-.1-4.36-.1a7.35,7.35,0,0,0-7.33,8c.27,3,.48,5.79.64,8.35.38,6,.5,10.8.41,15A129.36,129.36,0,0,1,129.76,229.9Z" style="fill: #407bff" />
      <g style="opacity: 0.30000000000000004"> <path d="M129.76,229.9l34.06,4.36c7.68-25.86,10.21-38.35,10.89-44.36a6.53,6.53,0,0,0-4.52-7c-2-.64-4.58-1.4-7.14-2-.87-.23-1.76-.44-2.63-.64a109.08,109.08,0,0,0-15.46-2c-.77-.07-1.53-.11-2.3-.15-1.51-.08-3-.1-4.36-.1a7.35,7.35,0,0,0-7.33,8c.27,3,.48,5.79.64,8.35.38,6,.5,10.8.41,15A129.36,129.36,0,0,1,129.76,229.9Z" style="fill: #fff" /> </g> <path d="M132,209.32c4.5-5.82,6.13-12.48,4.67-16.15l-5.08,1.14C132,200.29,132.11,205.11,132,209.32Z" style="fill: #407bff; opacity: 0.30000000000000004" /> <path d="M163.05,180.84c-.88-.23-1.76-.44-2.63-.64a110.65,110.65,0,0,0-15.47-2c-.77-.06-1.53-.1-2.29-.14l-1.33-.06,1,1.75c.14.24,3.54,5.8,12,11.78l1.81,1.26,1.74-1.33a13.14,13.14,0,0,0,5.48-10.53Z" style="fill: #fff" /> <path d="M148.71,167.92c-.32,4.21-1.31,8.5-3.76,10.3,0,0,3.12,5.19,11.2,10.86,5.06-3.87,4.27-8.88,4.27-8.88-5.38-2-5-5.73-2.73-11.68l-4.2-2.26A2.75,2.75,0,0,0,148.71,167.92Z" style="fill: #ff8b7b" /> <path d="M153.49,166.26a2.75,2.75,0,0,0-4.73,1.28,17,17,0,0,0,7.35,7.51,18.21,18.21,0,0,1,1.57-6.53Z" style="opacity: 0.2" /> <path d="M142.17,154.72c2.09,8.13,2.8,11.61,7.77,15,7.47,5.14,17,.8,17.37-7.78.35-7.73-3.12-19.73-11.8-21.45A11.45,11.45,0,0,0,142.17,154.72Z" style="fill: #ff8b7b" /> <path d="M162.86,142.17a43.9,43.9,0,0,1-17,9.37s6.21,13.21-5.41,9.88c-3.37-11.25,0-17.09,3-19.84C152.69,138.58,159.19,137.58,162.86,142.17Z" style="fill: #263238" /> <path d="M141.78,162.73a6.14,6.14,0,0,0,3.44,3.18c2,.72,3.19-1,2.76-3-.39-1.79-1.91-4.33-4-4.2A2.75,2.75,0,0,0,141.78,162.73Z" style="fill: #ff8b7b" /> <path d="M129.51,227.84l-1.93,2.85c-.15.22.1.5.49.55l35.72,4.58c.31,0,.58-.08.63-.27l.7-3c0-.21-.2-.42-.53-.47l-34.5-4.42A.6.6,0,0,0,129.51,227.84Z" style="fill: #407bff" /> <path d="M133.64,232.29l-.92-.12c-.18,0-.31-.14-.28-.25l.94-3.91a.33.33,0,0,1,.38-.16l.93.12c.18,0,.31.13.28.25l-.94,3.9C134,232.24,133.83,232.31,133.64,232.29Z" style="fill: #263238" /> <path d="M161.15,235.81l-.92-.11c-.18,0-.31-.14-.28-.26l.94-3.9c0-.11.2-.19.38-.17l.93.12c.18,0,.31.14.28.25l-.94,3.91C161.51,235.76,161.34,235.84,161.15,235.81Z" style="fill: #263238" /> <path d="M147.4,234.05l-.92-.12c-.19,0-.32-.13-.29-.25l.94-3.9c0-.12.2-.19.39-.17l.92.12c.18,0,.31.14.29.25l-.95,3.91C147.76,234,147.58,234.07,147.4,234.05Z" style="fill: #263238" /> <path d="M156.1,154.37c.12.67.58,1.15,1,1.06s.69-.69.56-1.36-.59-1.15-1-1.06S156,153.7,156.1,154.37Z" style="fill: #263238" /> <path d="M163.66,152.92c.13.67.59,1.14,1,1.06s.69-.7.56-1.37-.59-1.14-1-1.06S163.54,152.25,163.66,152.92Z" style="fill: #263238" /> <path d="M164,151.63l1.52-.78S165,152.27,164,151.63Z" style="fill: #263238" /> <path d="M161.66,154.42a18.53,18.53,0,0,0,3.21,3.81,2.91,2.91,0,0,1-2.3.91Z" style="fill: #ff5652" /> <path d="M156.94,161.84a.2.2,0,0,0,.24.31,5.37,5.37,0,0,1,4.88,0,.2.2,0,0,0,.27-.07.21.21,0,0,0-.06-.28,5.78,5.78,0,0,0-5.27,0S157,161.82,156.94,161.84Z" style="fill: #263238" /> <path d="M153.49,152.31a.36.36,0,0,0,.14-.16,3.17,3.17,0,0,1,2.26-1.79.4.4,0,0,0,.35-.45.39.39,0,0,0-.44-.35,4,4,0,0,0-2.89,2.24.4.4,0,0,0,.58.51Z" style="fill: #263238" /> <path d="M165.91,147.24l.05-.05a.4.4,0,0,0-.1-.56,4,4,0,0,0-3.62-.54.41.41,0,0,0-.22.52.4.4,0,0,0,.52.22,3.16,3.16,0,0,1,2.86.46A.39.39,0,0,0,165.91,147.24Z" style="fill: #263238" /> <path d="M156.47,153.08l1.52-.77S157.4,153.72,156.47,153.08Z" style="fill: #263238" /> <path d="M104.11,293.47a5.32,5.32,0,0,1-5.32-5.27c-.14-14.2,4.59-26.19,13.68-34.67,11.19-10.44,28.64-15.29,49.16-13.67,14.39,1.14,23.62-2.36,34.3-6.43,1.76-.66,3.53-1.34,5.35-2a5.32,5.32,0,1,1,3.64,10c-1.77.64-3.49,1.3-5.2,1.95-10.89,4.14-22.14,8.41-38.93,7.09-17.5-1.39-32.08,2.46-41.06,10.84-7,6.48-10.41,15.49-10.3,26.79a5.32,5.32,0,0,1-5.27,5.37Z" style="fill: #407bff" /> <path d="M191.21,215.28H214a7.17,7.17,0,0,1,7.17,7.17v25.69a7.17,7.17,0,0,1-7.17,7.17H191.21a0,0,0,0,1,0,0v-40A0,0,0,0,1,191.21,215.28Z" transform="translate(480.74 385.31) rotate(159.88)" style="fill: #407bff" /> <path d="M191.21,215.28H214a7.17,7.17,0,0,1,7.17,7.17v25.69a7.17,7.17,0,0,1-7.17,7.17H191.21a0,0,0,0,1,0,0v-40A0,0,0,0,1,191.21,215.28Z" transform="translate(480.74 385.31) rotate(159.88)" style="fill: #fff; opacity: 0.7000000000000001" /> <path d="M203.84,214.84l9.55-3.49,13.76,37.58-9.55,3.5a5.77,5.77,0,0,1-1.42-2.2l-12-32.79A5.7,5.7,0,0,1,203.84,214.84Z" style="fill: #407bff; opacity: 0.2" /> <rect x="235" y="220.7" width="1" height="6.66" transform="translate(-62.68 94.66) rotate(-20.12)" style="fill: #407bff" /> <path d="M232.45,217.16l-3.37-9.22a8.16,8.16,0,0,0-7.65-5.33,8,8,0,0,0-2.78.49l-6.08,2.23-.35-.94,6.09-2.23a9,9,0,0,1,3.12-.55,9.18,9.18,0,0,1,8.59,6l3.37,9.22Z" style="fill: #407bff" /> <rect x="212.75" y="205.65" width="20.74" height="46.89" rx="5.62" transform="matrix(-0.94, 0.34, -0.34, -0.94, 511.43, 367.47)" style="fill: #407bff" /> <path d="M222.2,217.87a3,3,0,1,1-3.84-1.79A3,3,0,0,1,222.2,217.87Z" style="fill: #263238" /> <path d="M229.67,238.26a3,3,0,1,1-3.85-1.79A3,3,0,0,1,229.67,238.26Z" style="fill: #263238" /> <path d="M142,235.85l-.08-.09c-1.56-1.56-3.21-3.26-4.7-5s-2.95-3.48-4.28-5.28a49.41,49.41,0,0,1-3.55-5.51,28.72,28.72,0,0,1-1.93-4.27c.6-2,1.24-4,2-5.92.87-2.31,1.85-4.58,2.92-6.82s2.21-4.44,3.44-6.59c.6-1.08,1.23-2.15,1.88-3.2l1-1.54c.31-.5.68-1,.94-1.43l.11-.16a5,5,0,0,0-8.16-5.77c-.5.68-.88,1.22-1.28,1.81s-.76,1.18-1.14,1.77c-.73,1.18-1.44,2.37-2.12,3.58a79,79,0,0,0-3.67,7.44c-.56,1.26-1,2.55-1.57,3.84s-.95,2.6-1.35,3.94a73.83,73.83,0,0,0-2.09,8.09l0,.23a4,4,0,0,0,.15,2.19,32.78,32.78,0,0,0,3.83,7.24,48.22,48.22,0,0,0,4.94,6,61.7,61.7,0,0,0,5.59,5.05,59.47,59.47,0,0,0,6.17,4.31,2.48,2.48,0,0,0,3-3.9Z" style="fill: #ff8b7b" /> <path d="M153.62,240.82l-.13-.26a6.2,6.2,0,0,0-4.37-3.4l-7.59-1.54-3.71,1.85c.4,4.16,6.34,6.65,6.34,6.65l1.69,1.93a3.5,3.5,0,0,0,4.64.55l2-1.43A3.48,3.48,0,0,0,153.62,240.82Z" style="fill: #ff8b7b" /> <path d="M135.19,178.65c-4.21,1.93-8.69,8.61-8.69,8.61l9,16.85s10.23-11.79,9.37-17.69C144.17,181.41,140.55,176.19,135.19,178.65Z" style="fill: #407bff" /> <g style="opacity: 0.30000000000000004"> <path d="M135.19,178.65c-4.21,1.93-8.69,8.61-8.69,8.61l9,16.85s10.23-11.79,9.37-17.69C144.17,181.41,140.55,176.19,135.19,178.65Z" style="fill: #fff" /> </g> </g>
      <g id="freepik--character-2--inject-15"> <path d="M423.29,399.43c-8.81,0-17.47-1.81-21.67-7.29-19.88-26-19.7-78.3-19.53-128.91.1-27.25,2.25-53-.78-73-1.78-11.79-8-19.88-14.28-24.06-9.32-6.16-22.12-2.85-27.59-1.44a5.32,5.32,0,1,1-2.66-10.3c6.83-1.77,22.85-5.9,36.11,2.86,8.95,5.91,16.69,16.46,18.94,31.35,3.15,20.8,1,46.93.9,74.59-.17,48.83-.34,99.32,17.34,122.41,1.43,1.86,7,3.53,16.25,3.05.82,0,1.62-.09,2.41-.16a5.22,5.22,0,0,1-.54-2.33,5.32,5.32,0,0,1,5.32-5.32c11.63,0,17.75,1,18.93,6.32.34,1.53.52,5.37-5.1,8C443.14,397.17,433.12,399.43,423.29,399.43Z" style="fill: #407bff" /> <polygon points="306.87 404.02 296.02 399.75 301.74 380.94 312.6 385.2 306.87 404.02" style="fill: #ffc3bd" /> <path d="M295.76,398.6,308,403.4a.75.75,0,0,1,.46.8l-1.2,7.62a1.25,1.25,0,0,1-1.7.95c-3.07-1.27-7.88-3.37-11.77-4.9-2.39-.94-6.94-2.44-10.25-3.74s-2.45-4.74-1-4.5c6.59,1.06,9.11-.07,11.74-1.05A2,2,0,0,1,295.76,398.6Z" style="fill: #263238" /> <polygon points="312.6 385.21 301.74 380.94 298.79 390.64 309.65 394.91 312.6 385.21" style="opacity: 0.2" /> <path d="M326.17,239.61s-9.82,48.54-13.57,72.48c-4.22,26.83-15.37,75.84-15.37,75.84l14.43,5.67s20.61-50.18,23.48-74.48c8.65-19.75,25.85-77.87,25.85-77.87Z" style="fill: #407bff" /> <polygon points="296.53 388.01 312.37 394.24 315.08 389.44 297.37 382.1 296.53 388.01" style="fill: #263238" /> <path d="M292.65,398.81a2.59,2.59,0,0,1-1.36-1,1.24,1.24,0,0,1,0-1.14.62.62,0,0,1,.52-.4c1.05-.11,3,2.45,3.19,2.75a.2.2,0,0,1,0,.22.2.2,0,0,1-.2.09A10.18,10.18,0,0,1,292.65,398.81Zm-.53-2.09a.5.5,0,0,0-.26-.05c-.06,0-.13,0-.2.17a.8.8,0,0,0,0,.78c.29.53,1.29,1,2.74,1.24A7.86,7.86,0,0,0,292.12,396.72Z" style="fill: #407bff" /> <path d="M294.78,399.32a.16.16,0,0,1-.08-.06c-.64-.76-1.54-3.11-1-3.92a.66.66,0,0,1,.79-.25,1.1,1.1,0,0,1,.7.55c.62,1.11-.08,3.45-.11,3.55a.21.21,0,0,1-.16.14A.14.14,0,0,1,294.78,399.32Zm-.34-3.82-.08,0c-.26-.06-.32,0-.35.09-.3.48.19,2.18.76,3.11a4.82,4.82,0,0,0,0-2.84A.7.7,0,0,0,294.44,395.5Z" style="fill: #407bff" /> <path d="M347.34,269c-5.44,6.74-7.59,23.92-7.57,38.24,3.67-10.11,7.88-22.95,11.58-34.61Z" style="opacity: 0.2" /> <polygon points="372.17 405.83 360.51 405.83 358.96 386.23 370.62 386.23 372.17 405.83" style="fill: #ffc3bd" /> <path d="M359.85,404.85H373a.73.73,0,0,1,.72.58l1.67,7.52a1.25,1.25,0,0,1-1.24,1.51c-3.32-.06-8.55-.26-12.73-.26-2.58,0-7.36.27-10.91.27s-4-3.51-2.57-3.83c6.53-1.43,8.47-3.39,10.55-5.27A2.06,2.06,0,0,1,359.85,404.85Z" style="fill: #263238" /> <polygon points="370.62 386.23 358.95 386.23 359.76 396.34 371.43 396.34 370.62 386.23" style="opacity: 0.2" /> <path d="M340.29,240.22s6.46,54.09,7.82,73.56c1.89,27.1,9.2,80.6,9.2,80.6h15.5s1.66-54.64-1.14-78.95c3.86-21.21,2.64-73.58,2.64-73.58Z" style="fill: #407bff" /> <polygon points="356.69 394.71 373.71 394.71 374.48 389.26 355.31 388.9 356.69 394.71" style="fill: #263238" /> <path d="M357,406.18a2.58,2.58,0,0,1-1.63-.43,1.25,1.25,0,0,1-.42-1.06.64.64,0,0,1,.35-.57c.94-.48,3.67,1.2,4,1.39a.2.2,0,0,1,.1.2.23.23,0,0,1-.16.17A10,10,0,0,1,357,406.18Zm-1.26-1.75a.53.53,0,0,0-.26.05c-.05,0-.11.08-.12.23a.8.8,0,0,0,.27.73c.46.39,1.57.44,3,.15A8.08,8.08,0,0,0,355.77,404.43Z" style="fill: #407bff" /> <path d="M359.2,405.88l-.1,0c-.87-.48-2.57-2.33-2.39-3.28a.65.65,0,0,1,.64-.52,1.07,1.07,0,0,1,.85.25c1,.81,1.19,3.25,1.2,3.35a.22.22,0,0,1-.09.19A.23.23,0,0,1,359.2,405.88Zm-1.71-3.43h-.09c-.26,0-.28.16-.29.21-.11.55,1,2,1.84,2.62a4.86,4.86,0,0,0-1-2.66A.75.75,0,0,0,357.49,402.45Z" style="fill: #407bff" /> <path d="M345.64,165.63h0l-9.34-.12c-3.14,0-6.26-.1-9.35-.15-.94,0-1.86-.06-2.79-.1.06,0,.1-.11.15-.16.66-.7,1.32-1.42,2-2.11q.51-.54,1-1.05c.31-.34.71-.72.92-1l.85-1.08a5.17,5.17,0,0,0-5.42-8.18l-1.85.5c-.57.17-1.14.36-1.71.55-1.12.39-2.22.82-3.31,1.29a49.09,49.09,0,0,0-6.35,3.38,45.63,45.63,0,0,0-5.95,4.53,39.42,39.42,0,0,0-5.31,5.91,9.07,9.07,0,0,0-1,1.72,8.76,8.76,0,0,0,4.52,11.53l.91.4a38.36,38.36,0,0,0,6.36,2.1c1.9.49,3.7.81,5.47,1.11s3.5.54,5.22.75,3.42.37,5.12.51c3.39.3,6.75.45,10.1.55s6.63.1,10.11-.06a10.42,10.42,0,0,0-.34-20.83Z" style="fill: #ffc3bd" /> <path d="M351.08,183.88c-8.07,9.2-27.49,5.76-27.49,5.76l1.07-22.92a101,101,0,0,1,20.26-2.35C356.32,164.35,357.54,176.5,351.08,183.88Z" style="fill: #263238" /> <path d="M329.54,176.83c-.48,3.7-1,8.68-1.31,15.38-4.21,21.3-5.78,36.39-2.06,47.4,2.94,3.63,41.25,2.93,48.14,2.23,4-9.9,4.42-38.32,4.89-62.21a13.77,13.77,0,0,0-11.45-13.82,92.49,92.49,0,0,0-26.12-.88A13.76,13.76,0,0,0,329.54,176.83Z" style="fill: #263238" /> <path d="M366.71,191.37c.13,7.28,5.41,18.91,11.35,24.81.36-6.15.59-12.82.77-19.55Z" style="opacity: 0.2" /> <path d="M400.09,205.52l-.34-.8a76,76,0,0,0-4.89-9.67c-1.78-3-3.7-5.83-5.69-8.56s-4.1-5.34-6.26-7.88c-1.1-1.26-2.19-2.52-3.34-3.74l-1.73-1.82L376,171.19a10.42,10.42,0,0,0-15.08,14.37l.3.33,5.87,6.53c2,2.22,3.91,4.48,5.81,6.73.92,1.13,1.87,2.26,2.73,3.41s1.77,2.26,2.63,3.4c1.24,1.73,2.44,3.45,3.51,5.14a25.68,25.68,0,0,1-.62,2.53,72.68,72.68,0,0,1-2.53,7.14c-1,2.47-2.06,5-3.16,7.49s-2.28,5.09-3.33,7.59l-.1.22a5.26,5.26,0,0,0,8.4,5.91,83,83,0,0,0,6.27-6.48q3-3.37,5.63-7.1c.89-1.25,1.74-2.55,2.58-3.9a45.2,45.2,0,0,0,2.39-4.25,39.75,39.75,0,0,0,2.1-4.92,22.39,22.39,0,0,0,1.28-6.71A7.49,7.49,0,0,0,400.09,205.52Z" style="fill: #ffc3bd" /> <path d="M368.43,165.94c13.49,2.31,22.28,20.57,22.28,20.57L374.45,204s-9.37-9.54-15-18.38C353.38,176,358.77,164.3,368.43,165.94Z" style="fill: #263238" /> <path d="M343.79,137.15c-2.26-3.79-3-9,1.14-14.31a4.2,4.2,0,0,1-4.12-2,24.79,24.79,0,0,1,16.09-5.6c12.1,0,13,4.67,12.59,7.86,8.28.53,14.32,22.06-6.67,25.87C350.81,136.32,343.79,137.15,343.79,137.15Z" style="fill: #263238" /> <path d="M368.73,123.49s3.37-3.44-.82-7.6a5.64,5.64,0,0,1,3.94,3.92C372.44,122.23,370.81,124.17,368.73,123.49Z" style="fill: #263238" /> <path d="M364.09,146.34c-.32,6.63-.92,14.17.19,19.46-1.72,2.71-6.12,5.83-14,6.53-2.8-1.59-6.5-5.48-5.21-7.48,3.35-2.15,4.77-8.66,3.81-13.53Z" style="fill: #ffc3bd" /> <path d="M360.25,147.59l-11.39,3.73a17.87,17.87,0,0,1,.05,6.28c3.4-.11,8.11-2.67,9.88-5.07A6.32,6.32,0,0,0,360.25,147.59Z" style="opacity: 0.2" /> <path d="M367.41,135.84c-2.11,8.13-2.93,13-7.91,16.41-7.49,5.13-16.91-.62-17.28-9.21-.32-7.74,3.18-19.74,11.88-21.45A11.46,11.46,0,0,1,367.41,135.84Z" style="fill: #ffc3bd" /> <path d="M365.73,124.2c-3.57,2.54-8,13.3,1,17.62C374.81,134.72,372.72,124.2,365.73,124.2Z" style="fill: #263238" /> <path d="M367.79,125.49c1.53-7.08-16.34-10.74-22-2.47C343.87,128,366.71,132.4,367.79,125.49Z" style="fill: #263238" /> <path d="M354.46,144.47h0a17.28,17.28,0,0,0-5.88-1.49.21.21,0,0,0-.21.22.29.29,0,0,0,.27.24,16.75,16.75,0,0,1,5.64,1.42.24.24,0,0,0,.31-.11A.21.21,0,0,0,354.46,144.47Z" style="fill: #263238" /> <path d="M369.36,144.73a8,8,0,0,1-5.56,2.51c-2.8.06-3.51-2.61-2.16-4.89,1.22-2,4.14-4.56,6.68-3.54S371.12,142.82,369.36,144.73Z" style="fill: #ffc3bd" /> <path d="M354.48,135.7c-.13.67-.59,1.15-1,1.06s-.68-.7-.55-1.37.59-1.14,1-1S354.61,135,354.48,135.7Z" style="fill: #263238" /> <path d="M346.91,134.23c-.13.67-.59,1.14-1,1.06s-.69-.7-.56-1.37.59-1.15,1-1.06S347,133.56,346.91,134.23Z" style="fill: #263238" /> <path d="M349.25,135a24.53,24.53,0,0,1-4.32,5.11c1,1.33,3.21,1.07,3.21,1.07Z" style="fill: #ed847e" /> <path d="M353.39,131.81a.43.43,0,0,1,.4.12,3.19,3.19,0,0,0,2.66,1.15.41.41,0,0,1,.46.34.39.39,0,0,1-.34.45,4,4,0,0,1-3.38-1.41.39.39,0,0,1,0-.56A.51.51,0,0,1,353.39,131.81Z" style="fill: #263238" /> <path d="M344.57,129.59a.36.36,0,0,1-.21-.13.4.4,0,0,1,.07-.57,4,4,0,0,1,3.57-.77.41.41,0,0,1,.26.51.43.43,0,0,1-.51.25h0a3.19,3.19,0,0,0-2.83.64A.35.35,0,0,1,344.57,129.59Z" style="fill: #263238" /> <path d="M376.85,235.56l-8.59-.06,4.44,9.86s7.33-1.57,6.93-5.55Z" style="fill: #ffc3bd" /> <path d="M363.89,242.27l1.41,2.78a3.34,3.34,0,0,0,4.21,1.58l3.19-1.27-4.44-9.86-3.41,2.6A3.33,3.33,0,0,0,363.89,242.27Z" style="fill: #ffc3bd" /> <path d="M311.46,228.3a5.33,5.33,0,0,1-3.81-9c3.82-3.94,7.27-7,10.31-9.67,7.34-6.47,9.87-9,9.63-13.85a48.72,48.72,0,0,0-1.9-8.82c-2.19-8.05-4.67-17.16-.42-24.47,2.28-3.93,6.15-6.62,11.51-8a5.32,5.32,0,0,1,2.66,10.3c-3.77,1-4.68,2.53-5,3.05-2,3.45-.07,10.59,1.49,16.32a55.55,55.55,0,0,1,2.26,11.1c.5,10.25-5.55,15.59-13.22,22.35-2.89,2.56-6.18,5.46-9.72,9.1A5.29,5.29,0,0,1,311.46,228.3Z" style="fill: #407bff" /> <path d="M323.13,151.9l8.32-2.13-1.94,10.64s-7.49.23-8.05-3.72Z" style="fill: #ffc3bd" /> <path d="M337.29,155.41l-.64,2.78a3.49,3.49,0,0,1-3.88,2.67l-3.26-.45,1.94-10.64,3.82,1.65A3.49,3.49,0,0,1,337.29,155.41Z" style="fill: #ffc3bd" /> <rect x="289.06" y="203.83" width="5.5" height="46.89" rx="2.59" transform="translate(246.1 -139.77) rotate(44.99)" style="fill: #263238" /> <rect x="304.41" y="219.18" width="5.5" height="46.89" rx="2.59" transform="translate(261.53 -146.14) rotate(45)" style="fill: #263238" /> <path d="M293.18,203h29.39a7.17,7.17,0,0,1,7.17,7.17v25.69a7.17,7.17,0,0,1-7.17,7.17H293.18a0,0,0,0,1,0,0V203a0,0,0,0,1,0,0Z" transform="translate(-66.44 285.55) rotate(-45)" style="fill: #407bff" /> <path d="M293.18,203h29.39a7.17,7.17,0,0,1,7.17,7.17v25.69a7.17,7.17,0,0,1-7.17,7.17H293.18a0,0,0,0,1,0,0V203a0,0,0,0,1,0,0Z" transform="translate(-66.44 285.55) rotate(-45)" style="fill: #fff; opacity: 0.7000000000000001" /> <path d="M291.58,214.56l-7.2,7.19,28.31,28.31,7.19-7.2a5.74,5.74,0,0,0-1.39-2.22L293.8,216A5.74,5.74,0,0,0,291.58,214.56Z" style="fill: #407bff; opacity: 0.2" /> <rect x="293.5" y="211.51" width="11.97" height="46.89" rx="5.62" transform="translate(-78.42 280.59) rotate(-45)" style="fill: #407bff" /> </g>
      <g id="freepik--page-not-found--inject-15"> <rect x="130.06" y="37.96" width="239.88" height="57.52" rx="8.42" style="fill: #fff" /> <path d="M361.52,96.22h-223a9.17,9.17,0,0,1-9.16-9.16V46.38a9.17,9.17,0,0,1,9.16-9.16h223a9.17,9.17,0,0,1,9.16,9.16V87.06A9.17,9.17,0,0,1,361.52,96.22Zm-223-57.52a7.69,7.69,0,0,0-7.68,7.68V87.06a7.69,7.69,0,0,0,7.68,7.68h223a7.69,7.69,0,0,0,7.68-7.68V46.38a7.69,7.69,0,0,0-7.68-7.68Z" style="fill: #263238" /> <g style="opacity: 0.4"><path d="M149.78,76.72V55.08h8.16a20.86,20.86,0,0,1,3.3.2,6.68,6.68,0,0,1,2.67,1,5.28,5.28,0,0,1,1.73,2.09,7,7,0,0,1-1.1,7.63q-1.75,1.9-6.34,1.91h-5.56v8.8Zm2.86-11.35h5.6a5.92,5.92,0,0,0,3.94-1,3.66,3.66,0,0,0,1.17-2.9,3.91,3.91,0,0,0-.69-2.33,3.26,3.26,0,0,0-1.81-1.28,12.77,12.77,0,0,0-2.67-.19h-5.54Z" style="fill: #263238"/><path d="M179.84,74.79A10.24,10.24,0,0,1,177,76.56a8.32,8.32,0,0,1-2.93.51,5.73,5.73,0,0,1-4-1.26,4.16,4.16,0,0,1-1.38-3.22,4.31,4.31,0,0,1,.52-2.11A4.5,4.5,0,0,1,170.6,69a6.72,6.72,0,0,1,1.92-.87,20.59,20.59,0,0,1,2.36-.4,24.45,24.45,0,0,0,4.74-.91c0-.36,0-.6,0-.69a2.93,2.93,0,0,0-.75-2.29,4.46,4.46,0,0,0-3-.9,4.77,4.77,0,0,0-2.77.65,4.1,4.1,0,0,0-1.32,2.33l-2.6-.36a6.48,6.48,0,0,1,1.17-2.69,5.12,5.12,0,0,1,2.35-1.58,10.44,10.44,0,0,1,3.56-.55,9.33,9.33,0,0,1,3.26.47,3.74,3.74,0,0,1,2.67,3,14.87,14.87,0,0,1,.13,2.45v3.54a38.39,38.39,0,0,0,.17,4.69,6.23,6.23,0,0,0,.67,1.88h-2.77A5.59,5.59,0,0,1,179.84,74.79Zm-.22-5.94a18.94,18.94,0,0,1-4.34,1,9.8,9.8,0,0,0-2.32.54,2.29,2.29,0,0,0-1.05.86,2.34,2.34,0,0,0,.44,3,3.41,3.41,0,0,0,2.35.71,5.47,5.47,0,0,0,2.73-.67,4.16,4.16,0,0,0,1.76-1.84,6.47,6.47,0,0,0,.43-2.65Z" style="fill: #263238"/><path d="M185.94,78l2.58.38a2.46,2.46,0,0,0,.9,1.74,4.37,4.37,0,0,0,2.7.74,4.69,4.69,0,0,0,2.85-.74,3.65,3.65,0,0,0,1.36-2.06,16.84,16.84,0,0,0,.19-3.41,5.46,5.46,0,0,1-4.34,2,5.91,5.91,0,0,1-5-2.33,9,9,0,0,1-1.78-5.6,10.3,10.3,0,0,1,.82-4.14,6.5,6.5,0,0,1,2.35-2.93,6.36,6.36,0,0,1,3.63-1,5.63,5.63,0,0,1,4.57,2.24V61h2.45V74.59a13,13,0,0,1-.74,5.19,5.48,5.48,0,0,1-2.37,2.42,8.15,8.15,0,0,1-4,.88,7.53,7.53,0,0,1-4.54-1.26A4.26,4.26,0,0,1,185.94,78Zm2.19-9.42a6.76,6.76,0,0,0,1.23,4.5,3.88,3.88,0,0,0,3.07,1.42,3.93,3.93,0,0,0,3.07-1.41,6.55,6.55,0,0,0,1.24-4.42,6.37,6.37,0,0,0-1.28-4.34,3.91,3.91,0,0,0-3.07-1.46,3.82,3.82,0,0,0-3,1.44A6.36,6.36,0,0,0,188.13,68.6Z" style="fill: #263238"/><path d="M214,71.67l2.75.34a6.79,6.79,0,0,1-2.41,3.74,7.27,7.27,0,0,1-4.49,1.32A7.16,7.16,0,0,1,204.37,75a8.28,8.28,0,0,1-2-5.95,8.67,8.67,0,0,1,2-6.14,6.91,6.91,0,0,1,5.28-2.18,6.69,6.69,0,0,1,5.14,2.14,8.48,8.48,0,0,1,2,6c0,.16,0,.4,0,.71H205.1a6,6,0,0,0,1.46,4,4.36,4.36,0,0,0,3.28,1.37,4.08,4.08,0,0,0,2.49-.77A5.06,5.06,0,0,0,214,71.67Zm-8.72-4.29H214a5.34,5.34,0,0,0-1-3,4.08,4.08,0,0,0-3.3-1.54,4.19,4.19,0,0,0-3.07,1.23A4.76,4.76,0,0,0,205.25,67.38Z" style="fill: #263238"/><path d="M228.45,76.72V61h2.39v2.23a5.65,5.65,0,0,1,5-2.58,6.53,6.53,0,0,1,2.61.51,4.1,4.1,0,0,1,1.78,1.33,5.24,5.24,0,0,1,.83,2,16.37,16.37,0,0,1,.14,2.58v9.64h-2.65V67.18a7.37,7.37,0,0,0-.31-2.43,2.62,2.62,0,0,0-1.1-1.28,3.53,3.53,0,0,0-1.86-.48,4.3,4.3,0,0,0-2.93,1.08c-.82.72-1.23,2.08-1.23,4.09v8.56Z" style="fill: #263238"/><path d="M244.28,68.88q0-4.35,2.42-6.45a7.3,7.3,0,0,1,4.93-1.74,7,7,0,0,1,5.28,2.12A8,8,0,0,1,259,68.66a10.44,10.44,0,0,1-.91,4.76,6.46,6.46,0,0,1-2.64,2.69,7.71,7.71,0,0,1-3.79,1A7,7,0,0,1,246.31,75,8.42,8.42,0,0,1,244.28,68.88Zm2.73,0a6.71,6.71,0,0,0,1.31,4.51,4.22,4.22,0,0,0,3.31,1.5,4.16,4.16,0,0,0,3.29-1.51,6.8,6.8,0,0,0,1.32-4.59,6.4,6.4,0,0,0-1.33-4.4,4.38,4.38,0,0,0-6.59,0A6.66,6.66,0,0,0,247,68.88Z" style="fill: #263238"/><path d="M267.88,74.34l.39,2.35a9.75,9.75,0,0,1-2,.24,4.59,4.59,0,0,1-2.24-.46,2.66,2.66,0,0,1-1.13-1.2,9.8,9.8,0,0,1-.32-3.14v-9h-1.95V61h1.95V57.16l2.64-1.6V61h2.67v2.07h-2.67v9.17a4.79,4.79,0,0,0,.14,1.46,1.13,1.13,0,0,0,.46.51,1.73,1.73,0,0,0,.91.2A8.62,8.62,0,0,0,267.88,74.34Z" style="fill: #263238"/><path d="M279.52,76.72V63.11h-2.35V61h2.35V59.37A7.18,7.18,0,0,1,279.8,57a3.35,3.35,0,0,1,1.35-1.68,4.85,4.85,0,0,1,2.71-.64,13.59,13.59,0,0,1,2.48.26l-.4,2.32a8.76,8.76,0,0,0-1.57-.15,2.36,2.36,0,0,0-1.71.52,2.83,2.83,0,0,0-.5,1.93V61h3.06v2.07h-3.06V76.72Z" style="fill: #263238"/><path d="M286.29,68.88q0-4.35,2.42-6.45a7.33,7.33,0,0,1,4.94-1.74,7,7,0,0,1,5.28,2.12A8,8,0,0,1,301,68.66a10.45,10.45,0,0,1-.9,4.76,6.42,6.42,0,0,1-2.65,2.69,7.67,7.67,0,0,1-3.78,1A7.06,7.06,0,0,1,288.32,75,8.42,8.42,0,0,1,286.29,68.88Zm2.74,0a6.65,6.65,0,0,0,1.31,4.51,4.37,4.37,0,0,0,6.6,0,6.85,6.85,0,0,0,1.31-4.59,6.45,6.45,0,0,0-1.32-4.4,4.38,4.38,0,0,0-6.59,0A6.61,6.61,0,0,0,289,68.88Z" style="fill: #263238"/><path d="M314.37,76.72v-2.3a5.73,5.73,0,0,1-5,2.65,6.22,6.22,0,0,1-2.59-.53A4.25,4.25,0,0,1,305,75.21a5.09,5.09,0,0,1-.82-2,13.46,13.46,0,0,1-.16-2.48V61h2.66v8.7a15.3,15.3,0,0,0,.16,2.8,2.8,2.8,0,0,0,1.06,1.65,3.28,3.28,0,0,0,2,.6,4.35,4.35,0,0,0,2.24-.62,3.4,3.4,0,0,0,1.49-1.67,8.36,8.36,0,0,0,.43-3.06V61h2.66V76.72Z" style="fill: #263238"/><path d="M320.91,76.72V61h2.39v2.23a5.65,5.65,0,0,1,5-2.58,6.53,6.53,0,0,1,2.61.51,4.1,4.1,0,0,1,1.78,1.33,5.24,5.24,0,0,1,.83,2,16.37,16.37,0,0,1,.14,2.58v9.64H331V67.18a7.37,7.37,0,0,0-.31-2.43,2.62,2.62,0,0,0-1.1-1.28,3.53,3.53,0,0,0-1.86-.48,4.32,4.32,0,0,0-2.93,1.08c-.82.72-1.23,2.08-1.23,4.09v8.56Z" style="fill: #263238"/><path d="M347.9,76.72v-2a4.87,4.87,0,0,1-4.39,2.33,6.12,6.12,0,0,1-3.44-1,6.81,6.81,0,0,1-2.44-2.89,10,10,0,0,1-.86-4.25,11.15,11.15,0,0,1,.78-4.26,6.06,6.06,0,0,1,2.35-2.93,6.26,6.26,0,0,1,3.5-1,5.21,5.21,0,0,1,2.52.6,5.12,5.12,0,0,1,1.8,1.55V55.08h2.64V76.72Zm-8.4-7.82a6.81,6.81,0,0,0,1.27,4.5,3.84,3.84,0,0,0,3,1.49,3.78,3.78,0,0,0,3-1.43,6.55,6.55,0,0,0,1.21-4.34,7.37,7.37,0,0,0-1.24-4.73,3.8,3.8,0,0,0-3.05-1.5,3.69,3.69,0,0,0-3,1.44A7.12,7.12,0,0,0,339.5,68.9Z" style="fill: #263238"/></g><circle cx="250" cy="106.49" r="18.54" style="fill: #263238" /><circle cx="250" cy="106.49" r="15.78" style="fill: #fff" /><polygon points="260.67 103.09 253.27 103.09 259.48 84.72 239.33 109.89 246.73 109.89 240.52 128.26 260.67 103.09" style="fill: #407bff"/><rect x="248.44" y="88.95" width="3.12" height="35.09" transform="translate(502.08 5.01) rotate(135)" style="fill: #263238"/></g>
    </svg>

  </def>
  <svg id="none"></svg>
</svg>
