<svg>
  <def>
    <svg id="pen" xmlns="http://www.w3.org/2000/svg" xmlns:xlink="http://www.w3.org/1999/xlink" xmlns:serif="http://www.serif.com/" fill="#000000" width="800px" height="800px" viewBox="0 0 64 64" version="1.1" xml:space="preserve" style="fill-rule:evenodd;clip-rule:evenodd;stroke-linejoin:round;stroke-miterlimit:2;"> <rect id="Icons" x="-128" y="-64" width="1280" height="800" style="fill:none;"/> <g id="Icons1" serif:id="Icons"> <g id="Strike"> </g> <g id="H1"> </g> <g id="H2"> </g> <g id="H3"> </g> <g id="list-ul"> </g> <g id="hamburger-1"> </g> <g id="hamburger-2"> </g> <g id="list-ol"> </g> <g id="list-task"> </g> <g id="trash"> </g> <g id="vertical-menu"> </g> <g id="horizontal-menu"> </g> <g id="sidebar-2"> </g> <g id="Pen"> <path d="M56.009,51.832l0,4.2l-33.652,-0.026l4.709,-4.174l28.943,0Z" style="fill-rule:nonzero;"/> <path d="M48.453,8.119c1.65,0 2.506,0.129 4.753,2.011c2.294,1.922 2.707,3.42 2.803,5.088c0.102,1.795 -0.504,3.975 -2.188,5.681l-31.961,31.961c-0.52,0.475 -0.63,0.449 -0.977,0.553l-10.226,2.556c-1.472,0.299 -2.854,-1.049 -2.55,-2.549l2.557,-10.226c0.1,-0.334 0.133,-0.517 0.553,-0.977c10.696,-10.696 21.195,-21.593 32.09,-32.087c1.421,-1.335 3.497,-2.011 5.146,-2.011Zm0,4.143c-0.86,0.016 -1.698,0.371 -2.311,0.976l-31.54,31.541l-1.566,6.261l6.262,-1.565c10.544,-10.544 21.419,-20.768 31.63,-31.634c1.674,-1.825 0.444,-5.453 -2.306,-5.577c-0.056,-0.002 -0.112,-0.003 -0.169,-0.002Z" style="fill-rule:nonzero;"/> </g> <g id="Pen1" serif:id="Pen"> </g> <g id="clock"> </g> <g id="external-link"> </g> <g id="hr"> </g> <g id="info"> </g> <g id="warning"> </g> <g id="plus-circle"> </g> <g id="minus-circle"> </g> <g id="vue"> </g> <g id="cog"> </g> <g id="logo"> </g> <g id="radio-check"> </g> <g id="eye-slash"> </g> <g id="eye"> </g> <g id="toggle-off"> </g> <g id="shredder"> </g> <g id="spinner--loading--dots-" serif:id="spinner [loading, dots]"> </g> <g id="react"> </g> <g id="check-selected"> </g> <g id="turn-off"> </g> <g id="code-block"> </g> <g id="user"> </g> <g id="coffee-bean"> </g> <g id="coffee-beans"> <g id="coffee-bean1" serif:id="coffee-bean"> </g> </g> <g id="coffee-bean-filled"> </g> <g id="coffee-beans-filled"> <g id="coffee-bean2" serif:id="coffee-bean"> </g> </g> <g id="clipboard"> </g> <g id="clipboard-paste"> </g> <g id="clipboard-copy"> </g> <g id="Layer1"> </g> </g> </svg>
    
    <svg id="user-icon" xmlns="http://www.w3.org/2000/svg" width="800px" height="800px" viewBox="0 0 36 36" fill="none"> <path d="M16.19 2H7.81C4.17 2 2 4.17 2 7.81V16.19C2 19 3.29 20.93 5.56 21.66C6.22 21.89 6.98 22 7.81 22H16.19C17.02 22 17.78 21.89 18.44 21.66C20.71 20.93 22 19 22 16.19V7.81C22 4.17 19.83 2 16.19 2ZM20.5 16.19C20.5 18.33 19.66 19.68 17.97 20.24C17 18.33 14.7 16.97 12 16.97C9.3 16.97 7.01 18.32 6.03 20.24H6.02C4.35 19.7 3.5 18.34 3.5 16.2V7.81C3.5 4.99 4.99 3.5 7.81 3.5H16.19C19.01 3.5 20.5 4.99 20.5 7.81V16.19Z" fill="#292D32"/> <path d="M12.0019 8C10.0219 8 8.42188 9.6 8.42188 11.58C8.42188 13.56 10.0219 15.17 12.0019 15.17C13.9819 15.17 15.5819 13.56 15.5819 11.58C15.5819 9.6 13.9819 8 12.0019 8Z" fill="#292D32"/> </svg>
    
    <svg id="mail" xmlns="http://www.w3.org/2000/svg" xmlns:xlink="http://www.w3.org/1999/xlink" fill="#000000" height="800px" width="800px" version="1.1" id="Layer_1" viewBox="0 0 512 512" xml:space="preserve"> <g> <g> <path d="M302.545,69.818h-93.091c-6.982,0-11.636,4.655-11.636,11.636s4.655,11.636,11.636,11.636h93.091    c6.982,0,11.636-4.655,11.636-11.636S309.527,69.818,302.545,69.818z"/> </g> </g> <g> <g> <path d="M256,128H151.273c-6.982,0-11.636,4.655-11.636,11.636s4.655,11.636,11.636,11.636H256    c6.982,0,11.636-4.655,11.636-11.636S262.982,128,256,128z"/> </g> </g> <g> <g> <path d="M279.273,221.091h-128c-6.982,0-11.636,4.655-11.636,11.636s4.655,11.636,11.636,11.636h128    c6.982,0,11.636-4.655,11.636-11.636S286.255,221.091,279.273,221.091z"/> </g> </g> <g> <g> <path d="M197.818,174.545h-46.545c-6.982,0-11.636,4.655-11.636,11.636s4.655,11.636,11.636,11.636h46.545    c6.982,0,11.636-4.655,11.636-11.636S204.8,174.545,197.818,174.545z"/> </g> </g> <g> <g> <path d="M290.909,174.545h-46.545c-6.982,0-11.636,4.655-11.636,11.636s4.655,11.636,11.636,11.636h46.545    c6.982,0,11.636-4.655,11.636-11.636S297.891,174.545,290.909,174.545z"/> </g> </g> <g> <g> <path d="M360.727,174.545h-23.273c-6.982,0-11.636,4.655-11.636,11.636s4.655,11.636,11.636,11.636h23.273    c6.982,0,11.636-4.655,11.636-11.636S367.709,174.545,360.727,174.545z"/> </g> </g> <g> <g> <path d="M360.727,128h-58.182c-6.982,0-11.636,4.655-11.636,11.636s4.655,11.636,11.636,11.636h58.182    c6.982,0,11.636-4.655,11.636-11.636S367.709,128,360.727,128z"/> </g> </g> <g> <g> <path d="M484.073,151.273l-24.436-15.127c-5.818-3.491-12.8-1.164-16.291,3.491c-3.491,5.818-1.164,12.8,3.491,16.291    l24.436,15.127c10.473,6.982,16.291,17.455,16.291,30.255v275.782c0,6.982-4.655,11.636-11.636,11.636H34.909    c-6.982,0-11.636-4.655-11.636-11.636V200.145c0-11.636,5.818-23.273,16.291-30.255L64,154.764    c5.818-2.327,6.982-9.309,4.655-15.127s-10.473-6.982-16.291-3.491l-24.436,15.127C10.473,161.745,0,180.364,0,200.145v276.945    C0,496.873,15.127,512,34.909,512h442.182C496.873,512,512,496.873,512,477.091V200.145    C512,180.364,501.527,161.745,484.073,151.273z"/> </g> </g> <g> <g> <path d="M146.618,339.782c-4.655-3.491-12.8-2.327-16.291,2.327L48.873,446.836c-3.491,4.655-3.491,12.8,2.327,16.291    c2.327,1.164,4.655,2.327,6.982,2.327c3.491,0,6.982-1.164,9.309-4.655l81.455-104.727    C152.436,351.418,152.436,343.273,146.618,339.782z"/> </g> </g> <g> <g> <path d="M463.127,446.836l-81.455-104.727c-4.654-4.655-11.636-5.818-16.291-2.327c-4.655,3.491-5.818,11.636-2.327,16.291    L444.509,460.8c2.327,3.491,5.818,4.655,9.309,4.655c2.327,0,4.655-1.164,6.982-2.327    C465.455,459.636,466.618,451.491,463.127,446.836z"/> </g> </g> <g> <g> <path d="M463.127,214.109c-4.655-4.655-11.636-5.818-16.291-1.164L278.109,350.255c-12.8,10.473-31.418,10.473-44.218,0    L65.164,211.782c-4.655-4.655-12.8-3.491-16.291,1.164c-4.655,4.655-3.491,12.8,1.164,16.291l168.727,138.473    c10.473,9.309,23.273,12.8,37.236,12.8s26.764-4.655,37.236-12.8l168.727-138.473    C466.618,225.745,466.618,218.764,463.127,214.109z"/> </g> </g> <g> <g> <path d="M384,0H128c-19.782,0-34.909,15.127-34.909,34.909v174.545c0,6.982,4.655,11.636,11.636,11.636    s11.636-4.655,11.636-11.636V34.909c0-6.982,4.655-11.636,11.636-11.636h256c6.982,0,11.636,4.655,11.636,11.636v174.545    c0,6.982,4.655,11.636,11.636,11.636c6.982,0,11.636-4.655,11.636-11.636V34.909C418.909,15.127,403.782,0,384,0z"/> </g> </g> </svg>
    
    <svg id="git" xmlns="http://www.w3.org/2000/svg" width="800px" height="800px" viewBox="0 0 24 24" fill="none"> <path d="M9.35003 16.88C9.35003 16.95 9.28003 17 9.18003 17C9.08003 17 9.00003 17 9.00003 16.88C9.00003 16.76 9.08003 16.76 9.17003 16.76C9.26003 16.76 9.35003 16.81 9.35003 16.88ZM8.35003 16.73C8.35003 16.8 8.35003 16.88 8.49003 16.9C8.52584 16.9172 8.56701 16.9195 8.6045 16.9064C8.642 16.8933 8.67275 16.8658 8.69003 16.83C8.69003 16.76 8.69003 16.69 8.55003 16.66C8.41003 16.63 8.37003 16.66 8.35003 16.73ZM9.77003 16.68C9.68003 16.68 9.62003 16.76 9.63003 16.84C9.64003 16.92 9.72003 16.95 9.82003 16.93C9.92003 16.91 9.97003 16.84 9.96003 16.77C9.95003 16.7 9.87003 16.67 9.77003 16.68ZM11.9 4.00002C10.8454 3.99009 9.79962 4.19333 8.82547 4.59754C7.85132 5.00175 6.96887 5.5986 6.23107 6.35227C5.49328 7.10594 4.91535 8.0009 4.53197 8.98343C4.14859 9.96597 3.96765 11.0158 4.00003 12.07C3.97211 13.7969 4.48426 15.4894 5.46493 16.9111C6.4456 18.3328 7.84582 19.4127 9.47003 20C9.88003 20.07 10.03 19.81 10.03 19.6C10.03 19.39 10.03 18.26 10.03 17.6C10.03 17.6 7.77003 18.1 7.29003 16.6C7.29003 16.6 6.93003 15.6 6.40003 15.39C6.40003 15.39 5.66003 14.87 6.45003 14.88C6.70877 14.9149 6.95573 15.01 7.17108 15.1576C7.38643 15.3052 7.56417 15.5013 7.69003 15.73C7.79466 15.9351 7.9401 16.1167 8.11742 16.2635C8.29473 16.4104 8.50019 16.5195 8.72118 16.5841C8.94218 16.6487 9.17404 16.6675 9.40255 16.6393C9.63106 16.6111 9.85139 16.5364 10.05 16.42C10.0879 16.0025 10.2679 15.6107 10.56 15.31C8.76003 15.1 6.94003 14.84 6.94003 11.65C6.92091 11.2896 6.97881 10.9293 7.10985 10.5931C7.2409 10.2569 7.44209 9.95241 7.70003 9.70002C7.45667 8.96799 7.48507 8.17282 7.78003 7.46002C8.46003 7.24002 10.01 8.35002 10.01 8.35002C11.3342 7.97655 12.7359 7.97655 14.06 8.35002C14.06 8.35002 15.61 7.24002 16.29 7.46002C16.5914 8.17142 16.6198 8.96894 16.37 9.70002C16.6371 9.94893 16.8489 10.2511 16.9919 10.587C17.1348 10.9229 17.2057 11.285 17.2 11.65C17.2 14.85 15.3 15.1 13.5 15.31C13.6809 15.5129 13.8186 15.7506 13.9046 16.0085C13.9905 16.2664 14.023 16.5391 14 16.81C14 17.93 14 19.31 14 19.58C13.9994 19.6475 14.015 19.7142 14.0456 19.7744C14.0763 19.8346 14.1209 19.8866 14.1759 19.9258C14.2308 19.9651 14.2945 19.9905 14.3613 19.9999C14.4282 20.0094 14.4964 20.0025 14.56 19.98C16.1813 19.3978 17.5786 18.321 18.5547 16.9017C19.5309 15.4824 20.0364 13.7922 20 12.07C20.0094 11.0051 19.8061 9.94902 19.402 8.96371C18.9979 7.9784 18.4011 7.08369 17.6467 6.33205C16.8923 5.58041 15.9953 4.98696 15.0085 4.58651C14.0217 4.18606 12.9649 3.98667 11.9 4.00002ZM7.14003 15.41C7.14003 15.41 7.14003 15.52 7.14003 15.58C7.15118 15.5912 7.16442 15.6001 7.17901 15.6061C7.1936 15.6122 7.20923 15.6153 7.22503 15.6153C7.24082 15.6153 7.25646 15.6122 7.27105 15.6061C7.28563 15.6001 7.29888 15.5912 7.31003 15.58C7.31003 15.58 7.31003 15.47 7.31003 15.4C7.31003 15.33 7.18003 15.37 7.14003 15.41ZM6.79003 15.14C6.79003 15.14 6.79003 15.24 6.86003 15.27C6.86846 15.2805 6.87913 15.2889 6.89124 15.2947C6.90335 15.3004 6.91661 15.3035 6.93003 15.3035C6.94345 15.3035 6.9567 15.3004 6.96881 15.2947C6.98093 15.2889 6.99159 15.2805 7.00003 15.27C7.00003 15.27 7.00003 15.17 6.93003 15.14C6.86003 15.11 6.81003 15.11 6.79003 15.14ZM7.79003 16.32C7.79003 16.32 7.79003 16.46 7.79003 16.53C7.79003 16.6 7.96003 16.61 8.00003 16.53C8.04003 16.45 8.00003 16.39 8.00003 16.32C8.00003 16.25 7.87003 16.27 7.83003 16.32H7.79003ZM7.42003 15.83C7.42003 15.83 7.42003 15.95 7.42003 16.03C7.42003 16.11 7.56003 16.14 7.61003 16.11C7.63535 16.0809 7.6493 16.0436 7.6493 16.005C7.6493 15.9664 7.63535 15.9291 7.61003 15.9C7.56003 15.82 7.48003 15.79 7.42003 15.83Z" fill="#000000"/> </svg>
   
    <svg id="linked-in" xmlns="http://www.w3.org/2000/svg" xmlns:xlink="http://www.w3.org/1999/xlink" fill="#000000" version="1.1" id="Layer_1" viewBox="-143 145 512 512" xml:space="preserve"> <g> <path d="M329,145h-432c-22.1,0-40,17.9-40,40v432c0,22.1,17.9,40,40,40h432c22.1,0,40-17.9,40-40V185C369,162.9,351.1,145,329,145z    M339,617c0,5.5-4.5,10-10,10h-432c-5.5,0-10-4.5-10-10V185c0-5.5,4.5-10,10-10h432c5.5,0,10,4.5,10,10V617z"/> <rect x="-8.5" y="348.4" width="49.9" height="159.7"/> <path d="M177.7,346.9c-28.6,0-46.5,15.6-49.8,26.6v-25.1H71.8c0.7,13.3,0,159.7,0,159.7h56.1v-86.3c0-4.9-0.2-9.7,1.2-13.1   c3.8-9.6,12.1-19.6,27-19.6c19.5,0,28.3,14.8,28.3,36.4v82.6H241v-88.8C241,369.9,213.2,346.9,177.7,346.9z"/> <path d="M15.4,273c-18.4,0-30.5,11.9-30.5,27.7c0,15.5,11.7,27.7,29.8,27.7h0.4c18.8,0,30.5-12.3,30.4-27.7   C45.1,284.9,33.8,273,15.4,273z"/> </g> </svg>
   
    <svg id="trash-can" xmlns="http://www.w3.org/2000/svg" width="800px" height="800px" viewBox="0 0 24 24" fill="none"> <path d="M5.16565 10.1534C5.07629 8.99181 5.99473 8 7.15975 8H16.8402C18.0053 8 18.9237 8.9918 18.8344 10.1534L18.142 19.1534C18.0619 20.1954 17.193 21 16.1479 21H7.85206C6.80699 21 5.93811 20.1954 5.85795 19.1534L5.16565 10.1534Z" stroke="#000000" stroke-width="2"/> <path d="M19.5 5H4.5" stroke="#000000" stroke-width="2" stroke-linecap="round"/> <path d="M10 3C10 2.44772 10.4477 2 11 2H13C13.5523 2 14 2.44772 14 3V5H10V3Z" stroke="#000000" stroke-width="2"/> </svg>
  </def>
  <svg id="none"></svg>
</svg>
